<svg width="13" height="13" viewBox="0 0 13 13" fill="none" xmlns="http://www.w3.org/2000/svg">
<mask id="path-1-inside-1" fill="white">
<path fill-rule="evenodd" clip-rule="evenodd" d="M0 0H17V1H0V0Z"/>
</mask>
<path fill-rule="evenodd" clip-rule="evenodd" d="M0 0H17V1H0V0Z" transform="translate(0.843262 0.136047) rotate(45)" fill="#D8D8D8"/>
<path d="M0 0V-1H-1V0H0ZM17 0H18V-1H17V0ZM17 1V2H18V1H17ZM0 1H-1V2H0V1ZM0 1H17V-1H0V1ZM16 0V1H18V0H16ZM17 0H0V2H17V0ZM1 1V0H-1V1H1Z" transform="translate(0.843262 0.136047) rotate(45)" fill="#979797" mask="url(#path-1-inside-1)"/>
<mask id="path-3-inside-2" fill="white">
<path fill-rule="evenodd" clip-rule="evenodd" d="M0 0H17V1H0V0Z"/>
</mask>
<path fill-rule="evenodd" clip-rule="evenodd" d="M0 0H17V1H0V0Z" transform="translate(0.135986 12.1569) rotate(-45)" fill="#D8D8D8"/>
<path d="M0 0V-1H-1V0H0ZM17 0H18V-1H17V0ZM17 1V2H18V1H17ZM0 1H-1V2H0V1ZM0 1H17V-1H0V1ZM16 0V1H18V0H16ZM17 0H0V2H17V0ZM1 1V0H-1V1H1Z" transform="translate(0.135986 12.1569) rotate(-45)" fill="#979797" mask="url(#path-3-inside-2)"/>
</svg>
