<?xml version="1.0" encoding="UTF-8"?>
<svg width="40px" height="40px" viewBox="0 0 40 40" version="1.1" xmlns="http://www.w3.org/2000/svg" xmlns:xlink="http://www.w3.org/1999/xlink">
    <!-- Generator: Sketch 51.1 (57501) - http://www.bohemiancoding.com/sketch -->
    <title>Group</title>
    <desc>Created with Sketch.</desc>
    <defs>
        <linearGradient x1="50%" y1="0%" x2="50%" y2="100%" id="linearGradient-1">
            <stop stop-color="#702283" offset="0%"></stop>
            <stop stop-color="#33193D" offset="100%"></stop>
        </linearGradient>
    </defs>
    <g id="Desktop" stroke="none" stroke-width="1" fill="none" fill-rule="evenodd">
        <g id="Downloads" transform="translate(-1688.000000, -48.000000)">
            <g id="Group" transform="translate(1688.000000, 48.000000)">
                <circle id="Oval-3-Copy" fill="url(#linearGradient-1)" cx="20" cy="20" r="20"></circle>
                <g id="Page-1" transform="translate(9.000000, 7.000000)" stroke="#FFFFFF">
                    <path d="M17.2292,6.729 C17.2292,10.169 14.4402,12.958 11.0002,12.958 C7.5602,12.958 4.7712,10.169 4.7712,6.729 C4.7712,3.289 7.5602,0.5 11.0002,0.5 C14.4402,0.5 17.2292,3.289 17.2292,6.729 Z" id="Stroke-1"></path>
                    <path d="M21.5002,21.5 L21.5002,18 C21.5002,15.651 19.5782,13.729 17.2292,13.729 L15.6312,13.729 C14.3372,14.693 12.7382,15.271 11.0002,15.271 C9.2622,15.271 7.6632,14.693 6.3682,13.729 L4.7712,13.729 C2.4222,13.729 0.5002,15.651 0.5002,18 L0.5002,21.5" id="Stroke-3"></path>
                </g>
            </g>
        </g>
    </g>
</svg>