<?xml version="1.0" encoding="utf-8"?>
<!-- Generator: Adobe Illustrator 22.1.0, SVG Export Plug-In . SVG Version: 6.00 Build 0)  -->
<svg version="1.1" id="Ebene_1" xmlns="http://www.w3.org/2000/svg" xmlns:xlink="http://www.w3.org/1999/xlink" x="0px" y="0px"
	 viewBox="0 0 347 29" style="enable-background:new 0 0 347 29;" xml:space="preserve">
<style type="text/css">
	.st0{fill:#78787A;}
	.st1{fill:#702283;}
</style>
<g>
	<path class="st0" d="M9.8,13.5c-1.7-0.4-4.4-0.5-6.3-0.9C2.1,12.3,2,10.9,2,10.4c0-1.5,1.1-1.9,2-1.9h4.4c1,0,1.8,0.1,2.4,0.7
		c0.2,0.3,0.4,0.4,0.7,0.4c0.5,0,0.9-0.4,0.9-0.9c0-0.4-0.4-0.7-0.9-1.2c-0.8-0.6-1.9-0.8-3.2-0.8H3.9c-1.9,0-3.8,1-3.8,3.6
		c0,1.2,0.5,3.4,3,3.9c1.4,0.2,4.9,0.7,6.2,0.9c1.1,0.2,1.6,1.1,1.6,2.2c0,1.8-1.5,2.1-2.5,2.1H4c-0.9,0-1.8,0-2.4-0.7
		c-0.2-0.2-0.4-0.3-0.7-0.3c-0.5,0-0.9,0.4-0.9,0.9s0.4,0.9,0.8,1.2c0.8,0.6,1.9,0.8,3.2,0.8h4.7c2.5,0,4-1.1,4-3.7
		C12.7,16.1,12.2,14,9.8,13.5z"/>
	<path class="st0" d="M32.3,8c-1.3-1.1-2-1.4-3.6-1.4h-2.3c-1.7,0-2.3,0.4-3.6,1.4c-1.2,1.1-1.5,1.7-1.5,3.3v5.3
		c0,1.6,0.2,2.3,1.5,3.3c1.3,1.1,2,1.4,3.6,1.4v-0.1h5.3c0.8,0,1.2-0.2,1.2-0.9s-0.4-0.9-1.2-0.9h-5.2c-1,0-1.7-0.2-2.4-0.8
		c-0.9-0.8-1-1.3-1-2.2v-1.3h9.4c1,0,1.3-0.3,1.3-1.3v-2.5C33.8,9.6,33.5,9,32.3,8z M32.1,13.4h-8.9v-1.8c0-0.9,0.1-1.4,1-2.2
		c0.7-0.6,1.4-0.8,2.4-0.8h2.1c1,0,1.7,0.2,2.4,0.8c0.9,0.8,1,1.3,1,2.2V13.4z"/>
	<path class="st0" d="M54.4,6.6h-2.9c-0.7,0-1.3,0.3-2,0.9L47,9.7V8c0-1-0.3-1.3-1.3-1.3h-2.4c-0.8,0-1.2,0.2-1.2,0.9
		s0.4,0.9,1.2,0.9h1.9v11h-2.5c-0.8,0-1.2,0.2-1.2,0.9s0.4,0.9,1.2,0.9H52c0.8,0,1.2-0.2,1.2-0.9s-0.4-0.9-1.2-0.9h-5v-7.3l3.6-3.3
		c0.5-0.4,0.7-0.5,1.4-0.5h2.4c0.8,0,1.2-0.2,1.2-0.9C55.6,6.8,55.2,6.6,54.4,6.6z"/>
	<path class="st0" d="M72.8,19.4h-4.1V8c0-1-0.3-1.3-1.3-1.3H63c-0.8,0-1.2,0.2-1.2,0.9c0,0.7,0.4,0.9,1.2,0.9h3.9v11h-4.6
		c-0.8,0-1.2,0.2-1.2,0.9c0,0.7,0.4,0.9,1.2,0.9v-0.1h10.5c0.8,0,1.2-0.2,1.2-0.9S73.6,19.4,72.8,19.4z"/>
	<path class="st0" d="M66.6,3.6h1.3c0.5,0,0.8-0.2,0.8-0.8V1.6c0-0.6-0.3-0.8-0.8-0.8h-1.3c-0.5,0-0.8,0.2-0.8,0.8v1.2
		C65.8,3.4,66.1,3.6,66.6,3.6z"/>
	<path class="st0" d="M90.9,8c-1.3-1.1-1.9-1.4-3.5-1.4h-2.7c-1.7,0-2.3,0.3-3.5,1.4c-1.2,1.1-1.5,1.7-1.5,3.3v5.3
		c0,1.6,0.2,2.3,1.5,3.3c1.3,1.1,1.9,1.4,3.5,1.4h2.7c1.7,0,2.2-0.4,3.5-1.4c1.2-1,1.5-1.7,1.5-3.3v-5.3C92.4,9.6,92.1,9,90.9,8z
		 M90.6,16.5c0,0.9-0.1,1.4-1,2.2c-0.7,0.6-1.4,0.8-2.4,0.8H85c-1,0-1.7-0.2-2.4-0.8c-0.9-0.8-1-1.3-1-2.2v-4.9c0-0.9,0.1-1.4,1-2.2
		C83.3,8.8,84,8.6,85,8.6h2.2c1,0,1.7,0.2,2.4,0.8c0.9,0.8,1,1.3,1,2.2V16.5z"/>
	<path class="st0" d="M111.6,7.6c-0.7-0.7-1.4-0.9-2.3-0.9h-2.1c-0.9,0-1.4,0.1-2.2,0.6L102.5,9V7.8c0-0.8-0.2-1.2-0.9-1.2
		c-0.7,0-0.9,0.4-0.9,1.2v12.4c0,0.8,0.2,1.2,0.9,1.2c0.7,0,0.9-0.4,0.9-1.2v-9l3.4-2.3c0.6-0.4,1.1-0.4,2.8-0.4
		c2,0,2.1,0.9,2.2,2.6l0.3,9.2c0,0.7,0.2,1.1,0.9,1.1c0.7,0,0.9-0.3,0.9-1.1l-0.4-9.8C112.6,9.4,112.5,8.4,111.6,7.6z"/>
	<path class="st0" d="M133.2,20.3c0-0.2-0.2-0.4-0.3-0.7l-9.8-17.1c-0.3-0.6-0.7-1-1.1-0.9c-0.7,0.2-0.9,0.6-0.8,1
		c0,0.3,0.2,0.6,0.3,0.8l9.8,17c0.3,0.6,0.7,1,1.1,0.9C133.1,21.2,133.3,20.7,133.2,20.3z"/>
</g>
<g>
	<path class="st1" d="M154.2,0c-0.7,0-0.9,0.4-0.9,1.2v7.5l-1.2-1c-0.8-0.7-1.5-1.1-2.7-1.1h-1.7c-1.6,0-2.2,0.4-3.5,1.4
		c-1.3,1.1-1.6,1.7-1.6,3.3v5.3c0,1.6,0.2,2.3,1.5,3.3c1.3,1.1,1.9,1.4,3.5,1.4h1.8c1.2,0,1.9-0.4,2.7-1.1l1.2-1v1.1
		c0,0.8,0.2,1.2,0.9,1.2s0.9-0.4,0.9-1.2V1.2C155.1,0.4,154.9,0,154.2,0z M153.2,15.8c0,1-1.1,2-2.6,3.2c-0.4,0.3-0.9,0.5-1.7,0.5
		v-0.1h-1.2c-1,0-1.7-0.3-2.4-0.8c-0.9-0.8-1-1.3-1-2.2v-4.9c0-0.9,0.1-1.4,1-2.2c0.7-0.5,1.4-0.8,2.4-0.8h1.2
		c0.8,0,1.3,0.2,1.7,0.5c1.5,1.2,2.6,2.2,2.6,3.2V15.8z"/>
	<path class="st1" d="M174.5,19.4h-4.1V8c0-1-0.3-1.3-1.3-1.3h-4.4c-0.8,0-1.2,0.2-1.2,0.9c0,0.7,0.4,0.9,1.2,0.9h3.9v11H164
		c-0.8,0-1.2,0.2-1.2,0.9c0,0.7,0.4,0.9,1.2,0.9v-0.1h10.5c0.8,0,1.2-0.2,1.2-0.9S175.3,19.4,174.5,19.4z"/>
	<path class="st1" d="M168.2,3.6h1.3c0.5,0,0.8-0.2,0.8-0.8V1.6c0-0.6-0.3-0.8-0.8-0.8h-1.3c-0.5,0-0.8,0.2-0.8,0.8v1.2
		C167.4,3.4,167.7,3.6,168.2,3.6z"/>
	<path class="st1" d="M191.6,7.7c-0.9-0.9-2.1-1-3.1-1h-5c-0.8,0-1.2,0.2-1.2,0.9c0,0.7,0.4,0.9,1.2,0.9h5c2,0,2.3,0.9,2.3,2.5v1.8
		h-6.4c-1.1,0-2,0.2-2.8,0.9c-0.9,0.8-1.1,1.4-1.1,2.6v1.3c0,1.3,0.2,2.1,1.2,2.9c0.9,0.6,1.7,0.8,2.7,0.8v-0.2h2.3
		c0.7,0,1.3,0,2-0.4l2.4-1.4v0.9c0,0.7,0.2,1.1,0.9,1.1s0.9-0.4,0.9-1.2l-0.3-9.6C192.6,9.4,192.5,8.6,191.6,7.7z M188.4,18.9
		c-0.6,0.4-0.9,0.6-1.7,0.6v-0.1h-2.3c-0.8,0-2.1-0.2-2.1-1.8v-1.3c0-1.6,1.2-1.7,2.1-1.7h6.5l0.1,2.7L188.4,18.9z"/>
	<path class="st1" d="M212.1,6.6c-0.7,0-0.9,0.4-0.9,1.2v0.8l-1.2-1c-0.8-0.7-1.5-1.1-2.7-1.1h-1.7c-1.6,0-2.2,0.4-3.5,1.4
		c-1.2,1.1-1.5,1.7-1.5,3.3v5.3c0,1.6,0.3,2.3,1.6,3.3c1.3,1.1,1.9,1.4,3.5,1.4h1.7c1.2,0,1.9-0.4,2.7-1.1l1.2-1v4.2
		c0,0.9-0.1,1.4-1,2.2c-0.7,0.6-1.4,0.8-2.4,0.8h-4.6c-0.8,0-1.2,0.2-1.2,0.9c0,0.7,0.4,0.9,1.2,0.9v0.1h4.6c1.7,0,2.3-0.4,3.6-1.4
		c1.2-1,1.5-1.7,1.5-3.3V7.8C213,7,212.8,6.6,212.1,6.6z M211.3,15.8c0,1-1.1,2-2.6,3.2c-0.4,0.3-0.9,0.5-1.7,0.5v-0.1h-1.2
		c-1,0-1.7-0.3-2.4-0.8c-0.9-0.8-1-1.3-1-2.2v-4.9c0-0.9,0.1-1.4,1-2.2c0.7-0.5,1.4-0.8,2.4-0.8h1.2c0.8,0,1.3,0.2,1.7,0.5
		c1.5,1.2,2.6,2.2,2.6,3.2V15.8z"/>
	<path class="st1" d="M232.7,7.6c-0.7-0.7-1.4-0.9-2.3-0.9h-2.1c-0.9,0-1.4,0.1-2.2,0.6L223.6,9V7.8c0-0.8-0.2-1.2-0.9-1.2
		c-0.7,0-0.9,0.4-0.9,1.2v12.4c0,0.8,0.2,1.2,0.9,1.2c0.7,0,0.9-0.4,0.9-1.2v-9l3.4-2.3c0.6-0.4,1.1-0.4,2.8-0.4
		c2,0,2.1,0.9,2.2,2.6l0.3,9.2c0,0.7,0.2,1.1,0.9,1.1c0.7,0,0.9-0.3,0.9-1.1l-0.4-9.8C233.7,9.4,233.6,8.4,232.7,7.6z"/>
	<path class="st1" d="M253.1,8c-1.3-1.1-1.9-1.4-3.5-1.4h-2.7c-1.7,0-2.3,0.3-3.5,1.4c-1.2,1.1-1.5,1.7-1.5,3.3v5.3
		c0,1.6,0.2,2.3,1.5,3.3c1.3,1.1,1.9,1.4,3.5,1.4h2.7c1.7,0,2.2-0.4,3.5-1.4c1.2-1,1.5-1.7,1.5-3.3v-5.3C254.6,9.6,254.3,9,253.1,8z
		 M252.8,16.5c0,0.9-0.1,1.4-1,2.2c-0.7,0.6-1.4,0.8-2.4,0.8h-2.3c-1,0-1.7-0.2-2.4-0.8c-0.9-0.8-1-1.3-1-2.2v-4.9
		c0-0.9,0.1-1.4,1-2.2c0.7-0.6,1.4-0.8,2.4-0.8h2.3c1,0,1.7,0.2,2.4,0.8c0.9,0.8,1,1.3,1,2.2V16.5z"/>
	<path class="st1" d="M271.3,13.4c-1.7-0.4-4.4-0.5-6.3-0.9c-1.4-0.3-1.5-1.7-1.5-2.2c0-1.5,1.1-1.9,2-1.9h4.4c1,0,1.8,0.1,2.4,0.7
		c0.2,0.3,0.4,0.4,0.7,0.4c0.5,0,0.9-0.4,0.9-0.9c0-0.3-0.3-0.7-0.8-1.1c-0.8-0.6-1.9-0.8-3.2-0.8h-4.4c-1.9,0-3.8,1-3.8,3.6
		c0,1.2,0.5,3.4,3,3.9c1.4,0.2,4.9,0.7,6.2,0.9c1.1,0.2,1.6,1.1,1.6,2.2c0,1.8-1.5,2.1-2.5,2.1h-4.4c-0.9,0-1.8,0-2.4-0.7
		c-0.2-0.2-0.4-0.3-0.7-0.3c-0.5,0-0.9,0.4-0.9,0.9s0.5,0.9,0.9,1.2c0.8,0.6,1.9,0.8,3.2,0.8v-0.1h4.5c2.5,0,4-1.1,4-3.7
		C274.2,16,273.7,13.9,271.3,13.4z"/>
	<path class="st1" d="M291.7,8.6c0.8,0,1.2-0.2,1.2-0.9c0-0.7-0.4-0.9-1.2-0.9h-5.8V1.2c0-0.8-0.2-1.2-0.9-1.2
		c-0.7,0-0.9,0.4-0.9,1.2v5.5h-3.9c-0.8,0-1.2,0.2-1.2,0.9s0.4,0.9,1.2,0.9h3.9v9.8c0,1.7,0.5,3,2.8,3h4.8c0.8,0,1.2-0.2,1.2-0.9
		c0-0.7-0.4-0.9-1.2-0.9h-4.6c-1.1,0-1.2-0.4-1.2-1.2V8.6H291.7z"/>
	<path class="st1" d="M303.3,3.6h1.3c0.5,0,0.8-0.2,0.8-0.8V1.6c0-0.6-0.3-0.8-0.8-0.8h-1.3c-0.5,0-0.8,0.2-0.8,0.8v1.2
		C302.5,3.4,302.8,3.6,303.3,3.6z"/>
	<path class="st1" d="M309.5,19.4h-4.1V8c0-1-0.3-1.3-1.3-1.3h-4.4c-0.8,0-1.2,0.2-1.2,0.9c0,0.7,0.4,0.9,1.2,0.9h3.9v11H299
		c-0.8,0-1.2,0.2-1.2,0.9c0,0.7,0.4,0.9,1.2,0.9v-0.1h10.5c0.8,0,1.2-0.2,1.2-0.9S310.3,19.4,309.5,19.4z"/>
	<path class="st1" d="M318.4,9.2c0.7-0.6,1.4-0.8,2.4-0.8h5.9c0.8,0,1.2-0.2,1.2-0.9c0-0.7-0.4-0.9-1.2-0.9h-6
		c-1.7,0-2.3,0.4-3.6,1.4c-1.2,1.1-1.5,1.7-1.5,3.3v5.3c0,1.6,0.2,2.3,1.5,3.3c1.3,1.1,2,1.4,3.6,1.4v-0.2h6c0.8,0,1.2-0.2,1.2-0.9
		c0-0.7-0.4-0.9-1.2-0.9h-5.9c-1,0-1.7-0.2-2.4-0.8c-0.9-0.8-1-1.3-1-2.2v-4.9C317.4,10.5,317.5,10,318.4,9.2z"/>
	<path class="st1" d="M343.8,13.4c-1.7-0.4-4.4-0.5-6.3-0.9c-1.4-0.3-1.5-1.7-1.5-2.2c0-1.5,1.1-1.9,2-1.9h4.3c1,0,1.8,0.1,2.4,0.7
		c0.2,0.3,0.4,0.4,0.7,0.4c0.5,0,0.9-0.4,0.9-0.9c0-0.3-0.3-0.7-0.8-1.1c-0.8-0.6-1.9-0.8-3.2-0.8h-4.4c-1.9,0-3.8,1-3.8,3.6
		c0,1.2,0.5,3.4,3,3.9c1.4,0.2,4.9,0.7,6.2,0.9c1.1,0.2,1.6,1.1,1.6,2.2c0,1.8-1.5,2.1-2.5,2.1H338c-0.9,0-1.8,0-2.4-0.7
		c-0.2-0.2-0.4-0.3-0.7-0.3c-0.5,0-0.9,0.4-0.9,0.9s0.5,0.9,0.9,1.2c0.8,0.6,1.9,0.8,3.2,0.8v-0.1h4.6c2.5,0,4-1.1,4-3.7
		C346.7,16,346.2,13.9,343.8,13.4z"/>
</g>
</svg>
