<?xml version="1.0" encoding="utf-8"?>
<!-- Generator: Adobe Illustrator 22.1.0, SVG Export Plug-In . SVG Version: 6.00 Build 0)  -->
<svg version="1.1" id="Ebene_1" xmlns="http://www.w3.org/2000/svg" xmlns:xlink="http://www.w3.org/1999/xlink" x="0px" y="0px"
	 viewBox="0 0 372 29" style="enable-background:new 0 0 372 29;" xml:space="preserve">
<style type="text/css">
	.st0{fill:#FFFFFF;}
</style>
<g>
	<path class="st0" d="M9.8,14.3c-1.7-0.4-4.4-0.5-6.3-0.9C2.1,13.2,2,11.8,2,11.3c0-1.5,1.1-1.9,2-1.9h4.4c0.9,0,1.8,0.1,2.4,0.7
		c0.3,0.3,0.4,0.4,0.7,0.4c0.5,0,0.9-0.4,0.9-0.9c0-0.3-0.3-0.7-0.8-1.1c-0.8-0.6-1.9-0.8-3.2-0.8H4c-1.9,0-3.8,1-3.8,3.6
		c0,1.2,0.5,3.5,3,3.9c1.4,0.2,4.9,0.7,6.2,0.9c1,0.2,1.6,1.1,1.6,2.2c0,1.8-1.4,2.1-2.5,2.1H4c-0.9,0-1.8,0-2.4-0.7
		c-0.2-0.2-0.5-0.3-0.7-0.3c-0.5,0-0.9,0.4-0.9,0.9c0,0.4,0.4,0.8,0.8,1.2c0.8,0.6,1.9,0.8,3.2,0.8h4.6c2.5,0,4-1.2,4-3.7
		C12.7,17,12.1,14.9,9.8,14.3z"/>
	<path class="st0" d="M32.3,9c-1.3-1-1.9-1.4-3.6-1.4h-2.3c-1.6,0-2.3,0.3-3.6,1.4c-1.3,1-1.5,1.6-1.5,3.3v5.3
		c0,1.6,0.3,2.3,1.5,3.3c1.3,1,1.9,1.4,3.6,1.4h5.3c0.8,0,1.2-0.2,1.2-0.9c0-0.7-0.4-0.9-1.2-0.9h-5.2c-1,0-1.7-0.2-2.4-0.8
		c-0.9-0.8-1-1.3-1-2.2V16h9.4c1,0,1.3-0.3,1.3-1.3v-2.5C33.8,10.6,33.5,10,32.3,9z M32.1,14.2h-9v-1.8c0-0.9,0.1-1.4,1-2.2
		c0.7-0.6,1.4-0.8,2.4-0.8h2.1c1,0,1.7,0.2,2.4,0.8c0.9,0.8,1,1.3,1,2.2V14.2z"/>
	<path class="st0" d="M54.4,7.6h-2.9c-0.7,0-1.4,0.3-2,0.9L47,10.6V8.9c0-1-0.3-1.3-1.3-1.3h-2.4c-0.8,0-1.2,0.2-1.2,0.9
		c0,0.7,0.4,0.9,1.2,0.9h1.9v10.9h-2.5c-0.8,0-1.2,0.2-1.2,0.9c0,0.7,0.4,0.9,1.2,0.9h9.2c0.8,0,1.2-0.2,1.2-0.9
		c0-0.7-0.4-0.9-1.2-0.9h-5V13l3.6-3.1c0.5-0.5,0.8-0.5,1.4-0.5h2.4c0.8,0,1.2-0.2,1.2-0.9C55.5,7.8,55.1,7.6,54.4,7.6z"/>
	<path class="st0" d="M72.8,20.3h-4.1V8.9c0-1-0.3-1.3-1.3-1.3H63c-0.8,0-1.2,0.2-1.2,0.9c0,0.7,0.4,0.9,1.2,0.9h3.9v10.9h-4.6
		c-0.8,0-1.2,0.2-1.2,0.9c0,0.7,0.4,0.9,1.2,0.9h10.4c0.8,0,1.2-0.2,1.2-0.9C73.9,20.5,73.5,20.3,72.8,20.3z"/>
	<path class="st0" d="M66.6,4.4h1.3c0.5,0,0.8-0.2,0.8-0.8V2.4c0-0.6-0.3-0.8-0.8-0.8h-1.3c-0.5,0-0.8,0.2-0.8,0.8v1.2
		C65.8,4.3,66.2,4.4,66.6,4.4z"/>
	<path class="st0" d="M90.9,9c-1.3-1-1.8-1.4-3.5-1.4h-2.7c-1.6,0-2.2,0.3-3.5,1.4c-1.3,1-1.5,1.6-1.5,3.3v5.3
		c0,1.6,0.3,2.3,1.5,3.3c1.3,1,1.8,1.4,3.5,1.4h2.7c1.6,0,2.2-0.3,3.5-1.4c1.2-1,1.5-1.7,1.5-3.3v-5.3C92.4,10.6,92.1,10,90.9,9z
		 M90.7,17.3c0,0.9-0.1,1.4-1.1,2.2c-0.7,0.6-1.4,0.8-2.4,0.8H85c-1,0-1.7-0.2-2.4-0.8c-0.9-0.8-1-1.3-1-2.2v-4.9
		c0-0.9,0.1-1.4,1-2.2c0.7-0.6,1.4-0.8,2.4-0.8h2.3c1,0,1.7,0.2,2.4,0.8c0.9,0.8,1.1,1.3,1.1,2.2V17.3z"/>
	<path class="st0" d="M111.7,8.5c-0.7-0.7-1.4-0.9-2.3-0.9h-2.1c-0.9,0-1.4,0.1-2.2,0.6l-2.5,1.7V8.6c0-0.8-0.2-1.2-0.9-1.2
		c-0.7,0-0.9,0.4-0.9,1.2v12.5c0,0.8,0.2,1.2,0.9,1.2c0.7,0,0.9-0.4,0.9-1.2v-9l3.4-2.3c0.5-0.3,1.1-0.4,2.8-0.4
		c1.9,0,2.1,0.9,2.2,2.6l0.3,9.2c0,0.7,0.2,1.1,0.9,1.1c0.7,0,0.9-0.3,0.9-1.1l-0.3-9.8C112.7,10.2,112.6,9.2,111.7,8.5z"/>
	<path class="st0" d="M132.9,20.5l-9.8-17c-0.3-0.6-0.7-1-1.1-0.9c-0.7,0.1-0.9,0.6-0.8,1c0.1,0.3,0.2,0.6,0.3,0.8l9.8,17
		c0.4,0.6,0.7,1,1.1,0.9c0.7-0.1,0.9-0.7,0.8-1C133.2,21,133,20.8,132.9,20.5z"/>
	<path class="st0" d="M148.5,4.4h1.3c0.5,0,0.8-0.2,0.8-0.8V2.4c0-0.6-0.3-0.8-0.8-0.8h-1.3c-0.5,0-0.8,0.2-0.8,0.8v1.2
		C147.8,4.3,148.1,4.4,148.5,4.4z"/>
	<path class="st0" d="M154.7,20.3h-4.1V8.9c0-1-0.3-1.3-1.3-1.3h-4.4c-0.8,0-1.2,0.2-1.2,0.9c0,0.7,0.4,0.9,1.2,0.9h3.9v10.9h-4.6
		c-0.8,0-1.2,0.2-1.2,0.9c0,0.7,0.4,0.9,1.2,0.9h10.4c0.8,0,1.2-0.2,1.2-0.9C155.8,20.5,155.5,20.3,154.7,20.3z"/>
	<path class="st0" d="M172.7,7.5c-1.2,0-2,0.7-2.7,1.4l-0.7,0.7c-0.2-0.9-1.1-2-2.7-2c-1.2,0-2,0.7-2.7,1.4l-0.3,0.3V8.6
		c0-0.8-0.2-1.2-0.9-1.2c-0.7,0-0.9,0.4-0.9,1.2v12.5c0,0.8,0.2,1.2,0.9,1.2c0.7,0,0.9-0.4,0.9-1.2v-9.6l1.4-1.3
		c0.8-0.7,1.1-1,1.6-1c1,0,1.1,1.2,1.1,2.2l0.3,9.7c0,0.7,0.2,1.1,0.9,1.1c0.7,0,0.9-0.4,0.9-1.1l-0.3-9.5l1.6-1.4
		c0.8-0.7,1.1-1,1.6-1c1,0,1.1,1.2,1.1,2.2l0.3,9.7c0,0.7,0.2,1.1,0.9,1.1c0.7,0,0.9-0.4,0.9-1.1l-0.3-9.9
		C175.6,8.9,174.8,7.5,172.7,7.5z"/>
	<path class="st0" d="M194.9,7.5c-1.2,0-2,0.7-2.7,1.4l-0.7,0.7c-0.2-0.9-1.1-2-2.7-2c-1.2,0-2,0.7-2.7,1.4l-0.3,0.3V8.6
		c0-0.8-0.2-1.2-0.9-1.2c-0.7,0-0.9,0.4-0.9,1.2v12.5c0,0.8,0.2,1.2,0.9,1.2c0.7,0,0.9-0.4,0.9-1.2v-9.6l1.4-1.3
		c0.8-0.7,1.1-1,1.6-1c1,0,1.1,1.2,1.1,2.2l0.3,9.7c0,0.7,0.2,1.1,0.9,1.1c0.7,0,0.9-0.4,0.9-1.1l-0.3-9.5l1.6-1.4
		c0.8-0.7,1.1-1,1.6-1c1,0,1.1,1.2,1.1,2.2l0.3,9.7c0,0.7,0.2,1.1,0.9,1.1c0.7,0,0.9-0.4,0.9-1.1l-0.3-9.9
		C197.7,8.9,196.9,7.5,194.9,7.5z"/>
	<path class="st0" d="M217.8,7.5c-0.7,0-0.9,0.4-0.9,1.2v9l-3.4,2.3c-0.5,0.3-1.1,0.4-2.8,0.4c-1.9,0-2.1-0.8-2.2-2.6l-0.3-9.2
		c0-0.7-0.2-1.1-0.9-1.1c-0.7,0-0.9,0.3-0.9,1.1l0.3,9.8c0,1.1,0.1,2.1,1,2.9c0.7,0.7,1.4,0.9,2.3,0.9h2.1c0.9,0,1.4-0.1,2.2-0.6
		l2.5-1.7v1.3c0,0.8,0.2,1.2,0.9,1.2c0.7,0,0.9-0.4,0.9-1.2V8.6C218.6,7.9,218.4,7.5,217.8,7.5z"/>
	<path class="st0" d="M238.2,8.5c-0.7-0.7-1.4-0.9-2.3-0.9h-2.1c-0.9,0-1.4,0.1-2.2,0.6l-2.5,1.7V8.6c0-0.8-0.2-1.2-0.9-1.2
		c-0.7,0-0.9,0.4-0.9,1.2v12.5c0,0.8,0.2,1.2,0.9,1.2c0.7,0,0.9-0.4,0.9-1.2v-9l3.4-2.3c0.5-0.3,1.1-0.4,2.8-0.4
		c1.9,0,2.1,0.9,2.2,2.6l0.3,9.2c0,0.7,0.2,1.1,0.9,1.1c0.7,0,0.9-0.3,0.9-1.1l-0.3-9.8C239.2,10.2,239.2,9.2,238.2,8.5z"/>
	<path class="st0" d="M258.6,9c-1.3-1-1.8-1.4-3.5-1.4h-2.7c-1.6,0-2.2,0.3-3.5,1.4c-1.3,1-1.5,1.6-1.5,3.3v5.3
		c0,1.6,0.3,2.3,1.5,3.3c1.3,1,1.8,1.4,3.5,1.4h2.7c1.6,0,2.2-0.3,3.5-1.4c1.2-1,1.5-1.7,1.5-3.3v-5.3C260.1,10.6,259.8,10,258.6,9z
		 M258.3,17.3c0,0.9-0.1,1.4-1,2.2c-0.7,0.6-1.4,0.8-2.4,0.8h-2.3c-1,0-1.7-0.2-2.4-0.8c-0.9-0.8-1-1.3-1-2.2v-4.9
		c0-0.9,0.1-1.4,1-2.2c0.7-0.6,1.4-0.8,2.4-0.8h2.3c1,0,1.7,0.2,2.4,0.8c0.9,0.8,1,1.3,1,2.2V17.3z"/>
	<path class="st0" d="M277.5,20.3h-4.1v-18c0-1-0.3-1.3-1.3-1.3h-5.1c-0.8,0-1.2,0.2-1.2,0.9c0,0.7,0.4,0.9,1.2,0.9h4.6v17.5h-4.6
		c-0.8,0-1.2,0.2-1.2,0.9c0,0.7,0.4,0.9,1.2,0.9h10.4c0.8,0,1.2-0.2,1.2-0.9C278.7,20.5,278.3,20.3,277.5,20.3z"/>
	<path class="st0" d="M294.7,9c-1.3-1-1.8-1.4-3.5-1.4h-2.7c-1.6,0-2.2,0.3-3.5,1.4c-1.3,1-1.5,1.6-1.5,3.3v5.3
		c0,1.6,0.3,2.3,1.5,3.3c1.3,1,1.8,1.4,3.5,1.4h2.7c1.6,0,2.2-0.3,3.5-1.4c1.2-1,1.5-1.7,1.5-3.3v-5.3C296.2,10.6,295.9,10,294.7,9z
		 M294.5,17.3c0,0.9-0.1,1.4-1,2.2c-0.7,0.6-1.4,0.8-2.4,0.8h-2.3c-1,0-1.7-0.2-2.4-0.8c-0.9-0.8-1-1.3-1-2.2v-4.9
		c0-0.9,0.1-1.4,1-2.2c0.7-0.6,1.4-0.8,2.4-0.8h2.3c1,0,1.7,0.2,2.4,0.8c0.9,0.8,1,1.3,1,2.2V17.3z"/>
	<path class="st0" d="M314.7,7.5c-0.7,0-0.9,0.4-0.9,1.2v1.1l-1.2-1c-0.8-0.7-1.5-1.1-2.7-1.1h-1.7c-1.6,0-2.2,0.3-3.5,1.4
		c-1.3,1-1.5,1.6-1.5,3.3v5.3c0,1.6,0.3,2.3,1.6,3.3c1.3,1,1.9,1.4,3.5,1.4h1.7c1.2,0,1.9-0.4,2.7-1.1l1.2-1v4.2
		c0,0.9-0.1,1.4-1,2.2c-0.7,0.6-1.4,0.8-2.4,0.8h-4.6c-0.8,0-1.2,0.2-1.2,0.9c0,0.7,0.4,0.9,1.2,0.9h4.7c1.6,0,2.3-0.3,3.6-1.4
		c1.2-1,1.5-1.7,1.5-3.3V8.6C315.6,7.9,315.4,7.5,314.7,7.5z M313.8,16.6c0,1-1.1,2-2.6,3.2c-0.4,0.3-0.9,0.5-1.7,0.5h-1.2
		c-1,0-1.7-0.3-2.4-0.8c-0.9-0.8-1-1.3-1-2.2v-4.9c0-0.9,0.1-1.4,1-2.2c0.7-0.5,1.4-0.8,2.4-0.8h1.2c0.8,0,1.3,0.2,1.7,0.5
		c1.5,1.2,2.6,2.2,2.6,3.2V16.6z"/>
	<path class="st0" d="M334.3,20.3h-4.1V8.9c0-1-0.3-1.3-1.3-1.3h-4.4c-0.8,0-1.2,0.2-1.2,0.9c0,0.7,0.4,0.9,1.2,0.9h3.9v10.9h-4.6
		c-0.8,0-1.2,0.2-1.2,0.9c0,0.7,0.4,0.9,1.2,0.9h10.4c0.8,0,1.2-0.2,1.2-0.9C335.4,20.5,335,20.3,334.3,20.3z"/>
	<path class="st0" d="M328.1,4.4h1.3c0.5,0,0.8-0.2,0.8-0.8V2.4c0-0.6-0.3-0.8-0.8-0.8h-1.3c-0.5,0-0.8,0.2-0.8,0.8v1.2
		C327.3,4.3,327.7,4.4,328.1,4.4z"/>
	<path class="st0" d="M343.2,10.2c0.7-0.6,1.4-0.8,2.4-0.8h5.9c0.8,0,1.2-0.2,1.2-0.9c0-0.7-0.4-0.9-1.2-0.9h-6
		c-1.6,0-2.3,0.3-3.6,1.4c-1.3,1-1.5,1.6-1.5,3.3v5.3c0,1.6,0.3,2.3,1.5,3.3c1.3,1,1.9,1.4,3.6,1.4h6c0.8,0,1.2-0.2,1.2-0.9
		c0-0.7-0.4-0.9-1.2-0.9h-5.9c-1,0-1.7-0.2-2.4-0.8c-0.9-0.8-1-1.3-1-2.2v-4.9C342.2,11.5,342.3,11,343.2,10.2z"/>
	<path class="st0" d="M368.6,14.3c-1.7-0.4-4.4-0.5-6.3-0.9c-1.4-0.2-1.5-1.6-1.5-2.2c0-1.5,1.1-1.9,2-1.9h4.4
		c0.9,0,1.8,0.1,2.4,0.7c0.3,0.3,0.4,0.4,0.7,0.4c0.5,0,0.9-0.4,0.9-0.9c0-0.3-0.3-0.7-0.8-1.1c-0.8-0.6-1.9-0.8-3.2-0.8h-4.4
		c-1.9,0-3.8,1-3.8,3.6c0,1.2,0.5,3.5,3,3.9c1.4,0.2,4.9,0.7,6.2,0.9c1,0.2,1.6,1.1,1.6,2.2c0,1.8-1.4,2.1-2.5,2.1h-4.4
		c-0.9,0-1.8,0-2.4-0.7c-0.2-0.2-0.5-0.3-0.7-0.3c-0.5,0-0.9,0.4-0.9,0.9c0,0.4,0.4,0.8,0.8,1.2c0.8,0.6,1.9,0.8,3.2,0.8h4.6
		c2.5,0,4-1.2,4-3.7C371.5,17,371,14.9,368.6,14.3z"/>
</g>
</svg>
