<?xml version="1.0" encoding="utf-8"?>
<!-- Generator: Adobe Illustrator 22.1.0, SVG Export Plug-In . SVG Version: 6.00 Build 0)  -->
<svg version="1.1" id="Ebene_1" xmlns="http://www.w3.org/2000/svg" xmlns:xlink="http://www.w3.org/1999/xlink" x="0px" y="0px"
	 viewBox="0 0 233 22" style="enable-background:new 0 0 233 22;" xml:space="preserve">
<style type="text/css">
	.st0{fill:#FFFFFF;}
</style>
<g>
	<path class="st0" d="M11,6.7c-0.9,0-1.2,0.6-1.2,1.6v2.6l-3.7,6L2.4,11V8.3c0-0.9-0.3-1.6-1.2-1.6S0,7.4,0,8.3v2.6
		c0,0.3,0,0.7,0.3,1.1l4.5,7.2c0.5,0.6,0.7,1.1,1.4,1.1c0.6,0,1-0.5,1.4-1.1l4.5-7.3c0.3-0.4,0.3-0.8,0.3-1.1V8.2
		C12.2,7.3,12,6.7,11,6.7z"/>
	<path class="st0" d="M24.4,4.2h1.1c0.6,0,1.1-0.3,1.1-1.1V2c0-0.8-0.5-1.1-1.1-1.1h-1.1c-0.6,0-1.1,0.3-1.1,1.1v1.1
		C23.3,3.9,23.7,4.2,24.4,4.2z"/>
	<path class="st0" d="M29.7,17.8h-3.1V8.4c0-1.1-0.5-1.6-1.6-1.6h-3.7c-0.9,0-1.6,0.3-1.6,1.2s0.6,1.2,1.6,1.2h2.9v8.6h-3.6
		c-0.9,0-1.6,0.3-1.6,1.2c0,0.9,0.6,1.2,1.6,1.2h9c0.9,0,1.6-0.3,1.6-1.2C31.2,18.1,30.6,17.8,29.7,17.8z"/>
	<path class="st0" d="M48.3,6.8h-2.5c-0.7,0-1.5,0.4-2.1,1l-1.6,1.6v-1c0-1.1-0.5-1.6-1.6-1.6h-1.9c-0.9,0-1.6,0.3-1.6,1.2
		s0.6,1.2,1.6,1.2h1.1v8.6h-1.6c-0.9,0-1.6,0.3-1.6,1.2c0,0.9,0.6,1.2,1.6,1.2v0.1h7.9c0.9,0,1.6-0.3,1.6-1.2c0-0.9-0.6-1.2-1.6-1.2
		H42v-5.4l3.1-2.7c0.4-0.3,0.7-0.5,1.2-0.5h2c0.9,0,1.6-0.3,1.6-1.2S49.2,6.8,48.3,6.8z"/>
	<path class="st0" d="M65,17.8h-3.1V8.4c0-1.1-0.5-1.6-1.6-1.6h-3.7c-0.9,0-1.6,0.3-1.6,1.2s0.6,1.2,1.6,1.2h2.9v8.6H56
		c-0.9,0-1.6,0.3-1.6,1.2c0,0.9,0.6,1.2,1.6,1.2h9c0.9,0,1.6-0.3,1.6-1.2C66.6,18.1,65.9,17.8,65,17.8z"/>
	<path class="st0" d="M59.7,4.2h1.1c0.6,0,1.1-0.3,1.1-1.1V2c0-0.8-0.5-1.1-1.1-1.1h-1.1c-0.6,0-1.1,0.3-1.1,1.1v1.1
		C58.6,3.9,59.1,4.2,59.7,4.2z"/>
	<path class="st0" d="M81.9,8.1c-1.2-1-1.7-1.3-3.4-1.3h-2.2c-1.6,0-2.2,0.3-3.4,1.3c-1.3,1.1-1.6,1.6-1.6,3.3v4.1
		c0,1.6,0.3,2.3,1.6,3.3c1.2,1,1.7,1.3,3.4,1.3h2.2c1.6,0,2.2-0.3,3.4-1.3c1.3-1.1,1.6-1.6,1.6-3.3v-4.1C83.5,9.8,83.2,9.1,81.9,8.1
		z M81.1,15.4c0,0.7-0.1,1.1-0.8,1.7c-0.5,0.5-1.1,0.6-1.9,0.6h-1.7c-0.8,0-1.3-0.2-1.9-0.6c-0.7-0.6-0.8-1-0.8-1.7v-3.7
		c0-0.7,0.1-1.1,0.8-1.7c0.5-0.5,1.1-0.6,1.9-0.6h1.7c0.8,0,1.3,0.2,1.9,0.6c0.7,0.6,0.8,1,0.8,1.7V15.4z"/>
	<path class="st0" d="M100.8,7.7c-0.7-0.5-1.3-0.8-2.2-0.8h-1.7c-0.7,0-1.4,0.5-2,0.8l-1.9,1.3V8.3c0-0.9-0.3-1.6-1.2-1.6
		c-0.9,0-1.2,0.6-1.2,1.6v10.4c0,0.9,0.3,1.6,1.2,1.6c0.9,0,1.2-0.6,1.2-1.6v-6.9l3.5-2.2C96.8,9.3,97,9.3,98,9.3
		c1.5,0,1.6,0.6,1.6,2l0.3,7.5c0.1,0.8,0.4,1.5,1.2,1.5c0.9,0,1.2-0.5,1.2-1.5l-0.4-8.2C101.8,9.4,101.8,8.5,100.8,7.7z"/>
	<path class="st0" d="M120.3,18.1l-8.5-14.9c-0.5-0.6-0.8-1-1.5-0.9c-0.9,0.2-1.2,0.8-1.1,1.4c0.1,0.3,0.2,0.5,0.4,0.8l8.6,14.8
		c0.4,0.7,0.8,1.1,1.5,1c0.9-0.2,1.1-0.8,1-1.4C120.6,18.6,120.5,18.4,120.3,18.1z"/>
	<path class="st0" d="M137.9,12.8l-5.3-0.8c-0.7-0.1-1.1-0.7-1.1-1.4c0-1.1,1.1-1.2,1.7-1.2h3.8c0.6,0,1,0,1.5,0.5
		c0.4,0.3,0.5,0.5,1,0.5c0.6,0,1.2-0.5,1.2-1.2c0-0.6-0.4-0.9-0.9-1.4c-0.9-0.7-1.5-0.8-2.7-0.8h-4c-2.4,0-3.9,1.2-3.9,3.5
		c0,0.9,0.5,3.3,3,3.7l5.3,0.6c0.9,0.2,1.1,1,1.1,1.6c0,1.2-1,1.3-1.6,1.3h-4.3c-0.6,0-1,0-1.5-0.5c-0.4-0.3-0.5-0.5-1-0.5
		c-0.6,0-1.2,0.5-1.2,1.2c0,0.6,0.4,0.9,0.9,1.4c0.9,0.7,1.7,0.8,3,0.8v0.2h4.1c2.3,0,3.9-1.2,3.9-3.6
		C140.9,15.1,140.1,13.1,137.9,12.8z"/>
	<path class="st0" d="M158.7,8.1c-1.2-1-1.7-1.3-3.4-1.3h-2c-1.6,0-2.2,0.3-3.4,1.3c-1.3,1.1-1.6,1.6-1.6,3.3v4.1
		c0,1.6,0.3,2.3,1.6,3.3c1.2,1,1.7,1.3,3.4,1.3h4.5c0.9,0,1.6-0.3,1.6-1.2c0-0.9-0.6-1.2-1.6-1.2h-4.3c-0.8,0-1.3-0.2-1.9-0.6
		c-0.7-0.6-0.8-1-0.8-1.7v-0.5h7.9c1.1,0,1.6-0.5,1.6-1.6v-1.9C160.2,9.8,160,9.1,158.7,8.1z M157.9,12.5h-7.1v-0.9
		c0-0.7,0.1-1.1,0.8-1.7c0.5-0.5,1.1-0.6,1.9-0.6h1.6c0.8,0,1.3,0.2,1.9,0.6c0.7,0.6,0.8,1,0.8,1.7V12.5z"/>
	<path class="st0" d="M178.6,6.8h-2.5c-0.7,0-1.5,0.4-2.1,1l-1.6,1.6v-1c0-1.1-0.5-1.6-1.6-1.6h-1.9c-0.9,0-1.6,0.3-1.6,1.2
		s0.6,1.2,1.6,1.2h1.1v8.6h-1.6c-0.9,0-1.6,0.3-1.6,1.2c0,0.9,0.6,1.2,1.6,1.2v0.1h7.9c0.9,0,1.6-0.3,1.6-1.2c0-0.9-0.6-1.2-1.6-1.2
		h-3.9v-5.4l3.1-2.7c0.4-0.3,0.7-0.5,1.2-0.5h1.9c0.9,0,1.6-0.3,1.6-1.2S179.5,6.8,178.6,6.8z"/>
	<path class="st0" d="M190,4.2h1.1c0.6,0,1.1-0.3,1.1-1.1V2c0-0.8-0.5-1.1-1.1-1.1H190c-0.6,0-1.1,0.3-1.1,1.1v1.1
		C188.9,3.9,189.4,4.2,190,4.2z"/>
	<path class="st0" d="M195.3,17.8h-3.1V8.4c0-1.1-0.5-1.6-1.6-1.6h-3.7c-0.9,0-1.6,0.3-1.6,1.2s0.6,1.2,1.6,1.2h2.9v8.6h-3.6
		c-0.9,0-1.6,0.3-1.6,1.2c0,0.9,0.6,1.2,1.6,1.2h9c0.9,0,1.6-0.3,1.6-1.2C196.9,18.1,196.2,17.8,195.3,17.8z"/>
	<path class="st0" d="M212.2,8.1c-1.2-1-1.7-1.3-3.4-1.3h-2.2c-1.6,0-2.2,0.3-3.4,1.3c-1.3,1.1-1.6,1.6-1.6,3.3v4.1
		c0,1.6,0.3,2.3,1.6,3.3c1.2,1,1.7,1.3,3.4,1.3h2.2c1.6,0,2.2-0.3,3.4-1.3c1.3-1.1,1.6-1.6,1.6-3.3v-4.1
		C213.7,9.8,213.5,9.1,212.2,8.1z M211.4,15.4c0,0.7-0.1,1.1-0.8,1.7c-0.5,0.5-1.1,0.6-1.9,0.6h-1.7c-0.8,0-1.3-0.2-1.9-0.6
		c-0.7-0.6-0.8-1-0.8-1.7v-3.7c0-0.7,0.1-1.1,0.8-1.7c0.5-0.5,1.1-0.6,1.9-0.6h1.7c0.8,0,1.3,0.2,1.9,0.6c0.7,0.6,0.8,1,0.8,1.7
		V15.4z"/>
	<path class="st0" d="M232.2,10.6c-0.1-1.2-0.1-2.1-1.1-2.9c-0.7-0.5-1.3-0.8-2.2-0.8h-1.7c-0.7,0-1.4,0.5-2,0.8l-1.9,1.3V8.3
		c0-0.9-0.3-1.6-1.2-1.6c-0.9,0-1.2,0.6-1.2,1.6v10.4c0,0.9,0.3,1.6,1.2,1.6c0.9,0,1.2-0.6,1.2-1.6v-6.9l3.5-2.2
		c0.4-0.3,0.5-0.3,1.6-0.3c1.5,0,1.6,0.6,1.6,2l0.3,7.5c0.1,0.8,0.4,1.5,1.2,1.5c0.9,0,1.2-0.5,1.2-1.5L232.2,10.6z"/>
</g>
</svg>
