<svg width="20" height="15" viewBox="0 0 20 15" fill="none" xmlns="http://www.w3.org/2000/svg">
<rect width="20" height="15" fill="black" fill-opacity="0"/>
<mask id="mask0" mask-type="alpha" maskUnits="userSpaceOnUse" x="0" y="0" width="20" height="15">
<path fill-rule="evenodd" clip-rule="evenodd" d="M0 0H19.8684V15H0L0 0Z" fill="white"/>
</mask>
<g mask="url(#mask0)">
<path fill-rule="evenodd" clip-rule="evenodd" d="M19.1749 6.21869L16.7939 13.7187C16.6669 14.1249 16.3177 14.3753 15.8733 14.3753H2.85742C2.95234 14.2499 3.0479 14.0628 3.11107 13.9065L5.71456 5.65619C5.84155 5.24994 6.19075 4.99994 6.6352 4.99994H18.2542C18.9476 4.99994 19.3555 5.68431 19.1749 6.21869ZM1.61889 14.3753C1.07921 14.3753 0.634766 13.9687 0.634766 13.4378V1.56244C0.634766 1.03119 1.04715 0.624939 1.58715 0.624939H6.76143C7.01572 0.624939 7.26969 0.718689 7.42842 0.906189L9.58715 3.03119C9.65064 3.09369 9.71413 3.12494 9.80937 3.12494H16.1586C16.6976 3.12494 17.111 3.53119 17.111 4.06244V4.37494H6.63477C5.93635 4.37494 5.33286 4.81244 5.11096 5.46869L2.50778 13.7187C2.3808 14.1249 2.03159 14.3753 1.61889 14.3753ZM18.2854 4.37494H17.7778V4.06244C17.7778 3.18744 17.079 2.49994 16.1905 2.49994H9.96825L7.90476 0.468689C7.61905 0.187439 7.20635 -6.10352e-05 6.79365 -6.10352e-05H1.5873C0.698413 -6.10352e-05 0 0.687439 0 1.56244V13.4378C0 14.3124 0.698413 15.0003 1.5873 15.0003H15.9044C16.6029 15.0003 17.2067 14.5624 17.4289 13.9065L19.8098 6.40619C20.0816 5.40025 19.3794 4.37494 18.2854 4.37494Z" fill="black"/>
</g>
</svg>
