<svg width="20" height="15" viewBox="0 0 20 15" fill="none" xmlns="http://www.w3.org/2000/svg">
<rect width="20" height="15" fill="black" fill-opacity="0"/>
<mask id="mask0" mask-type="alpha" maskUnits="userSpaceOnUse" x="0" y="0" width="20" height="15">
<path fill-rule="evenodd" clip-rule="evenodd" d="M20 7.50006V15H0V7.50006V0.00012207H20V7.50006Z" fill="white"/>
</mask>
<g mask="url(#mask0)">
<path fill-rule="evenodd" clip-rule="evenodd" d="M19.375 13.4376C19.375 13.9686 18.9688 14.3751 18.4375 14.3751H1.5625C1.03125 14.3751 0.625 13.9686 0.625 13.4376V5.93762C0.625 5.40637 1.03125 5.00012 1.5625 5.00012H18.4375C18.9688 5.00012 19.375 5.40637 19.375 5.93762V13.4376ZM1.5625 0.625122H7.0625L9.46875 3.03137C9.53125 3.09356 9.59375 3.12512 9.6875 3.12512H18.4375C18.9688 3.12512 19.375 3.53137 19.375 4.06262V4.68762C19.125 4.49981 18.7812 4.37512 18.4375 4.37512H1.5625C1.21875 4.37512 0.875 4.49981 0.625 4.68762V1.56262C0.625 1.03137 1.03125 0.625122 1.5625 0.625122ZM18.4375 2.50012H9.8125L7.40625 0.0938721C7.34375 0.0313721 7.28125 0.00012207 7.1875 0.00012207H1.5625C0.6875 0.00012207 0 0.687622 0 1.56262V13.4376C0 14.3126 0.6875 15.0001 1.5625 15.0001H18.4375C19.3125 15.0001 20 14.3126 20 13.4376V4.06262C20 3.18762 19.3125 2.50012 18.4375 2.50012Z" fill="black"/>
</g>
</svg>
