<svg width="20" height="20" viewBox="0 0 20 20" version="1.1" xmlns="http://www.w3.org/2000/svg" xmlns:xlink="http://www.w3.org/1999/xlink">
<g id="Canvas" fill="none">
<g id="Info-Icon Copy">
<g id="Oval 4">
<path fill-rule="evenodd" clip-rule="evenodd" d="M 10 20C 15.5228 20 20 15.5228 20 10C 20 4.47715 15.5228 0 10 0C 4.47715 0 0 4.47715 0 10C 0 15.5228 4.47715 20 10 20Z" fill="#702283"/>
</g>
<g id="i">
<path d="M 2.97 4.62C 2.97 4.88 2.87 5.1 2.67 5.28C 2.47 5.45 2.23 5.535 1.95 5.535C 1.67 5.535 1.43 5.45 1.23 5.28C 1.03 5.1 0.93 4.88 0.93 4.62C 0.93 4.36 1.03 4.14 1.23 3.96C 1.43 3.78 1.67 3.69 1.95 3.69C 2.23 3.69 2.47 3.78 2.67 3.96C 2.87 4.14 2.97 4.36 2.97 4.62ZM 1.035 15L 1.035 6.915L 2.865 6.915L 2.865 15L 1.035 15Z" transform="translate(8 1.5)" fill="white"/>
</g>
</g>
</g>
</svg>

