<svg width="19" height="19" viewBox="0 0 19 19" fill="none" xmlns="http://www.w3.org/2000/svg">
<rect width="19" height="19" fill="black" fill-opacity="0"/>
<mask id="mask0" mask-type="alpha" maskUnits="userSpaceOnUse" x="0" y="0" width="19" height="19">
<path fill-rule="evenodd" clip-rule="evenodd" d="M19 9.49998V0H0V9.49998V19H19V9.49998Z" fill="white"/>
</mask>
<g mask="url(#mask0)">
<path fill-rule="evenodd" clip-rule="evenodd" d="M13.0628 4.74994C13.9337 4.74994 14.6462 5.46244 14.6462 6.33327C14.6462 7.20411 13.9337 7.91661 13.0628 7.91661C12.192 7.91661 11.4795 7.20411 11.4795 6.33327C11.4795 5.46244 12.192 4.74994 13.0628 4.74994ZM13.0625 8.70825C14.3687 8.70825 15.4375 7.6395 15.4375 6.33325C15.4375 5.027 14.3687 3.95825 13.0625 3.95825C11.7563 3.95825 10.6875 5.027 10.6875 6.33325C10.6875 7.6395 11.7563 8.70825 13.0625 8.70825ZM3.3252 13.4583L7.52103 9.26245L11.2023 12.9437C11.3606 13.1016 11.5981 13.1016 11.7564 12.9437L13.4585 11.2416L15.6752 13.4583H3.3252ZM13.7351 10.4104C13.5768 10.2524 13.3393 10.2524 13.181 10.4104L11.4789 12.1124L7.79764 8.43119C7.63931 8.27286 7.40181 8.27286 7.24348 8.43119L2.09764 13.577C1.82492 13.8498 2.06439 14.2499 2.37473 14.2499H16.6247C17.0024 14.2499 17.1405 13.8153 16.9018 13.577L13.7351 10.4104ZM18.2087 17.8125C18.2087 18.05 18.0503 18.2083 17.8128 18.2083H1.18783C0.950326 18.2083 0.791992 18.05 0.791992 17.8125V1.18746C0.791992 0.949959 0.950326 0.791626 1.18783 0.791626H17.8128C18.0503 0.791626 18.2087 0.949959 18.2087 1.18746V17.8125ZM17.8125 -6.10352e-05H1.1875C0.514583 -6.10352e-05 0 0.514522 0 1.18744V17.8124C0 18.4854 0.514583 18.9999 1.1875 18.9999H17.8125C18.4854 18.9999 19 18.4854 19 17.8124V1.18744C19 0.514522 18.4854 -6.10352e-05 17.8125 -6.10352e-05Z" fill="white"/>
</g>
</svg>
