<svg width="40" height="40" viewBox="0 0 40 40" fill="none" xmlns="http://www.w3.org/2000/svg">
<path fill-rule="evenodd" clip-rule="evenodd" d="M12.458 6.229C12.458 9.669 9.669 12.458 6.229 12.458C2.789 12.458 0 9.669 0 6.229C0 2.789 2.789 0 6.229 0C9.669 0 12.458 2.789 12.458 6.229Z" transform="translate(13.7715 7.5)" stroke="#333333"/>
<path d="M21 7.771V4.271C21 1.922 19.078 0 16.729 0H15.131C13.837 0.964 12.238 1.542 10.5 1.542C8.762 1.542 7.163 0.964 5.868 0H4.271C1.922 0 0 1.922 0 4.271V7.771" transform="translate(9.5 20.729)" stroke="#333333"/>
</svg>
