<?xml version="1.0" encoding="utf-8"?>
<!-- Generator: Adobe Illustrator 21.0.2, SVG Export Plug-In . SVG Version: 6.00 Build 0)  -->
<svg version="1.1" xmlns="http://www.w3.org/2000/svg" xmlns:xlink="http://www.w3.org/1999/xlink" x="0px" y="0px"
	 viewBox="0 0 481 652" style="enable-background:new 0 0 481 652;" xml:space="preserve">
<style type="text/css">
	.st0{fill:url(#Fill-1_1_);}
	.st1{fill:url(#Fill-2_1_);}
	.st2{fill:url(#Fill-3_1_);}
	.st3{fill:url(#Fill-4_1_);}
	.st4{fill:url(#Fill-5_1_);}
	.st5{fill:url(#Fill-6_1_);}
	.st6{fill:url(#Fill-7_1_);}
	.st7{fill:url(#Fill-8_1_);}
	.st8{fill:url(#Fill-9_1_);}
	.st9{fill:url(#Fill-10_1_);}
	.st10{fill:url(#Fill-11_1_);}
	.st11{fill:url(#Fill-12_1_);}
	.st12{fill:url(#Fill-13_1_);}
	.st13{fill:url(#Fill-14_1_);}
	.st14{fill:url(#Fill-15_1_);}
	.st15{fill:url(#Fill-16_1_);}
	.st16{fill:url(#Fill-17_1_);}
	.st17{fill:url(#Fill-18_1_);}
	.st18{fill:url(#Fill-19_1_);}
	.st19{fill:url(#Fill-20_1_);}
	.st20{fill:url(#Fill-21_1_);}
	.st21{fill:url(#Fill-22_1_);}
	.st22{fill:url(#Fill-23_1_);}
	.st23{fill:url(#Fill-24_1_);}
	.st24{fill:url(#Fill-25_1_);}
	.st25{display:none;}
	.st26{display:inline;fill:none;}
	.st27{display:inline;fill:#FFFFFF;}
	.st28{font-family:'DaxPro-Light';}
	.st29{font-size:14px;}
	.st30{fill:#FFFFFF;}
</style>
<g id="Ebene_1">
	<title>430E85C4-59A2-4D96-BBB8-186BB32582C9</title>
	<desc>Created with sketchtool.</desc>
	<g id="Desktop">
		<g id="Ansprechpartner-Copy" transform="translate(-363.000000, -266.000000)">
			<g id="Deutschlandkarte" transform="translate(363.000000, 266.000000)">
				
					<radialGradient id="Fill-1_1_" cx="-48.8434" cy="428.1425" r="1" gradientTransform="matrix(5.378 0 0 -5.378 411.2723 2347.585)" gradientUnits="userSpaceOnUse">
					<stop  offset="0" style="stop-color:#7E3D90"/>
					<stop  offset="0.4721" style="stop-color:#702283"/>
					<stop  offset="1" style="stop-color:#33193D"/>
				</radialGradient>
				<polygon id="Fill-1" class="st0" points="151.2,43.1 149.1,43.9 148.8,44.1 148.6,44.3 148.6,44.5 148.6,45.5 148.7,45.9 
					148.8,46.1 149,46.4 149.1,46.5 149.7,47.2 150.2,47.7 150.4,47.7 151,47.7 151.8,47.5 152.5,47.3 152.7,47.2 153,46.9 
					153.9,44.9 154.4,43.8 154.4,42.6 154.2,42.4 153.7,42.4 153.3,42.4 151.5,43 				"/>
				
					<radialGradient id="Fill-2_1_" cx="-48.2027" cy="431.0578" r="1" gradientTransform="matrix(5.0859 0 0 -5.0859 379.8018 2225.3835)" gradientUnits="userSpaceOnUse">
					<stop  offset="0" style="stop-color:#7E3D90"/>
					<stop  offset="0.4721" style="stop-color:#702283"/>
					<stop  offset="1" style="stop-color:#33193D"/>
				</radialGradient>
				<polygon id="Fill-2" class="st1" points="137,29.8 137.9,29 137.8,28.9 137.7,28.9 137.3,29 135.3,30.8 135.1,31.2 134.8,31.9 
					134.7,32.6 134.6,33 134.7,33.2 134.9,33.8 135.9,35.4 136.4,36.2 137,37.1 137.2,37.2 137.4,37.2 138.4,37.2 138.4,37.2 
					139.4,36.7 139.5,36.6 139.7,36 139.7,35.9 139.6,35.9 138.7,35.4 137.8,34.1 136.8,31.3 136.7,30.6 136.8,30.2 				"/>
				
					<radialGradient id="Fill-3_1_" cx="-27.8818" cy="523.5184" r="1" gradientTransform="matrix(1.8681 0 0 -1.8681 196.9182 1019.0452)" gradientUnits="userSpaceOnUse">
					<stop  offset="0" style="stop-color:#7E3D90"/>
					<stop  offset="0.4721" style="stop-color:#702283"/>
					<stop  offset="1" style="stop-color:#33193D"/>
				</radialGradient>
				<polygon id="Fill-3" class="st2" points="147.3,40.3 147.2,40.2 146.9,40.1 146.4,40.3 145.2,40.1 145,40.2 144.8,40.3 
					144.9,40.4 145.1,40.8 145.2,40.9 146.5,41.8 146.8,42 147.5,42 147.9,41.9 148,41.7 148,41.3 147.3,40.4 				"/>
				
					<radialGradient id="Fill-4_1_" cx="-30.5624" cy="511.3207" r="1" gradientTransform="matrix(2.0382 0 0 -2.0382 175.4262 1114.848)" gradientUnits="userSpaceOnUse">
					<stop  offset="0" style="stop-color:#7E3D90"/>
					<stop  offset="0.4721" style="stop-color:#702283"/>
					<stop  offset="1" style="stop-color:#33193D"/>
				</radialGradient>
				<polygon id="Fill-4" class="st3" points="114.1,73.6 114.7,73.7 115.4,72.4 115.3,71.9 114.4,72 114,71.6 113.6,71.8 
					113.2,72.1 113.1,72.3 113.9,73.6 				"/>
				
					<radialGradient id="Fill-5_1_" cx="-54.2419" cy="403.5796" r="1" gradientTransform="matrix(10.42 0 0 -10.42 699.1786 4218.6753)" gradientUnits="userSpaceOnUse">
					<stop  offset="0" style="stop-color:#7E3D90"/>
					<stop  offset="0.4721" style="stop-color:#702283"/>
					<stop  offset="1" style="stop-color:#33193D"/>
				</radialGradient>
				<polygon id="Fill-5" class="st4" points="140.9,0 140.8,0.1 140.3,0.3 140.2,0.4 139.9,1 138.3,4.6 138,5.4 136.8,8.2 
					135.9,10.5 135.1,12.6 134.9,13.7 134.7,15.4 134.5,17.3 134,24.8 134,25.4 134.4,26.4 134.7,26.7 134.8,26.7 134.9,26.6 
					134.9,26.2 135.1,19.9 135,19.7 134.9,19.3 134.9,19.2 135,17.9 135.3,16.8 135.6,16.5 137.3,15.4 137.8,15.8 137.9,16 
					139,16.6 140.2,17.5 140.6,17.6 140.7,17.6 143,16.4 144.4,15.3 144.3,15.2 144,15.1 143.6,15.1 141.9,15.2 141.4,15.1 
					141.2,15 139.7,13.7 139.7,13.6 138.3,12.3 138,7.4 138.9,5.6 139.3,5.1 140.1,4.4 140.2,4.4 141.2,4.2 142.2,3.5 143.5,1 
					143.5,0.9 143.4,0.9 141.7,0.2 141.2,0 				"/>
				
					<radialGradient id="Fill-6_1_" cx="-43.8245" cy="450.9784" r="1" gradientTransform="matrix(3.7093 0 0 -3.7093 308.4726 1707.8976)" gradientUnits="userSpaceOnUse">
					<stop  offset="0" style="stop-color:#7E3D90"/>
					<stop  offset="0.4721" style="stop-color:#702283"/>
					<stop  offset="1" style="stop-color:#33193D"/>
				</radialGradient>
				<polygon id="Fill-6" class="st5" points="147.4,35.2 146,35.8 145.9,36.1 146,36.2 146.8,36.9 148.7,35.9 151.7,35.2 152,35 
					152.3,34.6 152.5,34.1 152.6,33.3 152.5,33.2 				"/>
				
					<radialGradient id="Fill-7_1_" cx="-18.0171" cy="568.4005" r="1" gradientTransform="matrix(1.4292 0 0 -1.4292 177.7444 896.1592)" gradientUnits="userSpaceOnUse">
					<stop  offset="0" style="stop-color:#7E3D90"/>
					<stop  offset="0.4721" style="stop-color:#702283"/>
					<stop  offset="1" style="stop-color:#33193D"/>
				</radialGradient>
				<polygon id="Fill-7" class="st6" points="152.7,85 152.8,85.1 153.1,85.1 153.3,84.9 153.4,82.8 153.4,82.8 153.2,82.6 
					153,82.6 152.7,82.7 152.6,82.8 152.4,82.9 152.3,83.1 152.1,83.5 152,83.9 152,84.2 152.4,84.7 				"/>
				
					<radialGradient id="Fill-8_1_" cx="-48.8619" cy="428.0582" r="1" gradientTransform="matrix(5.3869 0 0 -5.3869 422.4059 2353.677)" gradientUnits="userSpaceOnUse">
					<stop  offset="0" style="stop-color:#7E3D90"/>
					<stop  offset="0.4721" style="stop-color:#702283"/>
					<stop  offset="1" style="stop-color:#33193D"/>
				</radialGradient>
				<polygon id="Fill-8" class="st7" points="160.2,50.1 160.9,50.3 162.6,50.4 163.4,50.4 164.4,49.6 164.9,49 164.9,48.9 
					166.1,47.1 166.2,46.9 166,45.9 165.7,45.6 164.9,45.4 163.1,45.3 162.1,45.1 159.5,46.7 159.2,47.1 159.2,47.4 159.2,49.5 
					159.7,49.9 				"/>
				
					<radialGradient id="Fill-9_1_" cx="-50.6788" cy="419.7912" r="1" gradientTransform="matrix(6.437 0 0 -6.437 465.7849 2730.7334)" gradientUnits="userSpaceOnUse">
					<stop  offset="0" style="stop-color:#7E3D90"/>
					<stop  offset="0.4721" style="stop-color:#702283"/>
					<stop  offset="1" style="stop-color:#33193D"/>
				</radialGradient>
				<polygon id="Fill-9" class="st8" points="143.2,25.6 141.6,25.9 141.2,26.1 140.8,26.3 140.4,26.8 140.1,27.4 139.6,28.4 
					139.6,29.1 139.6,29.4 139.8,29.7 139.9,29.8 143.2,31.4 143.9,31.6 144.7,31.7 147.3,31.8 147.7,31.7 147.8,31.7 149.3,28.5 
					148.9,26.6 148.7,26.4 148,25.8 147.1,25.5 146.7,25.4 146.5,25.4 145.9,25.3 145.2,25.6 145,25.7 143.6,25.6 				"/>
				
					<radialGradient id="Fill-10_1_" cx="-54.5612" cy="402.1264" r="1" gradientTransform="matrix(11.0319 0 0 -11.0319 868.1556 4485.8003)" gradientUnits="userSpaceOnUse">
					<stop  offset="0" style="stop-color:#7E3D90"/>
					<stop  offset="0.4721" style="stop-color:#702283"/>
					<stop  offset="1" style="stop-color:#33193D"/>
				</radialGradient>
				<polygon id="Fill-10" class="st9" points="266.5,52 267.7,52.8 267.9,52.9 268.3,53 268.3,52.9 268.3,52.9 268.2,52.9 
					268.2,52.9 267.9,52.8 267.1,52.3 267.1,51.8 267.3,51.7 269.1,51 270,51.3 270.3,51.4 270.6,51.6 270.8,51.8 271,52.5 
					270.9,53.2 270.8,54.3 274.9,55 281.3,55.1 281.3,55.1 281.4,55 281.3,54.5 280.3,52.3 279.5,50.5 276.9,46.6 274.3,45.2 
					269.9,44.5 269.5,44.3 269.3,44.2 269.2,44.1 269.1,44.1 268.8,44.3 268.2,45.1 267.7,45.7 267.4,46.3 266.8,47.5 266.6,48.3 
					266.5,48.6 266.2,51.4 266.3,51.8 				"/>
				
					<radialGradient id="Fill-11_1_" cx="-11.0481" cy="600.1103" r="1" gradientTransform="matrix(1.2257 0 0 -1.2257 131.6965 843.2903)" gradientUnits="userSpaceOnUse">
					<stop  offset="0" style="stop-color:#7E3D90"/>
					<stop  offset="0.4721" style="stop-color:#702283"/>
					<stop  offset="1" style="stop-color:#33193D"/>
				</radialGradient>
				<polygon id="Fill-11" class="st10" points="118.6,108.8 118.8,109 119,109.1 119.2,109.2 119.3,109.3 119.4,109.2 119.4,108.3 
					119,106.6 118.8,106.2 118.2,106.9 118.2,107.2 118.5,108.6 				"/>
				
					<radialGradient id="Fill-12_1_" cx="-26.3263" cy="530.5953" r="1" gradientTransform="matrix(1.7818 0 0 -1.7818 157.7441 1051.2355)" gradientUnits="userSpaceOnUse">
					<stop  offset="0" style="stop-color:#7E3D90"/>
					<stop  offset="0.4721" style="stop-color:#702283"/>
					<stop  offset="1" style="stop-color:#33193D"/>
				</radialGradient>
				<polygon id="Fill-12" class="st11" points="111.8,106.7 111.9,105.8 112.1,105.5 112.2,105.4 112.3,105.4 115.4,106.2 
					116.8,106.7 116.9,106.7 116.9,106.3 115.9,105.6 115.7,105.5 115.2,105.3 113.7,105 113.2,105 112.6,104.9 111.5,105 
					111.2,105.1 110.8,105.4 110.8,105.6 110.9,105.6 				"/>
				
					<radialGradient id="Fill-13_1_" cx="-48.3992" cy="430.1638" r="1" gradientTransform="matrix(5.172 0 0 -5.172 301.3755 2344.9028)" gradientUnits="userSpaceOnUse">
					<stop  offset="0" style="stop-color:#7E3D90"/>
					<stop  offset="0.4721" style="stop-color:#702283"/>
					<stop  offset="1" style="stop-color:#33193D"/>
				</radialGradient>
				<polygon id="Fill-13" class="st12" points="51.6,120.7 53.7,122.4 54.2,122.5 54.3,122.5 54.3,122.5 54.2,122.4 54.1,122.1 
					54.1,121.9 54.2,121.8 54.5,121.6 54.9,121.6 55.2,121.8 55.6,122.7 55.7,122.7 56.2,122.3 56.2,122.2 55.7,121.6 54.6,120.6 
					58.9,119.4 58.9,119.3 58.5,118.9 57,117.8 56.5,117.6 56,117.5 55.8,117.5 51.6,118.8 51.3,118.9 51.2,119 51.1,119.2 
					51.1,119.5 51.2,120.2 				"/>
				
					<radialGradient id="Fill-14_1_" cx="-18.7743" cy="564.9575" r="1" gradientTransform="matrix(1.4554 0 0 -1.4554 89.5164 935.5938)" gradientUnits="userSpaceOnUse">
					<stop  offset="0" style="stop-color:#7E3D90"/>
					<stop  offset="0.4721" style="stop-color:#702283"/>
					<stop  offset="1" style="stop-color:#33193D"/>
				</radialGradient>
				<polygon id="Fill-14" class="st13" points="62.7,113.9 62.9,114 63,114 63.5,114.1 63.5,114 64,113.9 67.8,113.3 70.7,113.2 
					71.3,113.2 71.8,113.2 73,113.3 73.1,113.3 73.1,113.4 73.3,113.2 73.3,113 73.2,112.9 73.1,112.8 72.4,112.6 69.9,112.6 
					64.2,113.2 62.5,113.4 62.2,113.4 62.2,113.5 62.2,113.7 				"/>
				
					<radialGradient id="Fill-15_1_" cx="-35.3555" cy="489.5123" r="1" gradientTransform="matrix(2.4346 0 0 -2.4346 187.8431 1298.7399)" gradientUnits="userSpaceOnUse">
					<stop  offset="0" style="stop-color:#7E3D90"/>
					<stop  offset="0.4721" style="stop-color:#702283"/>
					<stop  offset="1" style="stop-color:#33193D"/>
				</radialGradient>
				<polygon id="Fill-15" class="st14" points="102.1,108.1 102.5,108.2 103.2,107.2 106.2,107.4 109.2,106.8 109.3,106.8 
					109.2,106.6 108.9,106.3 107.8,106 107.5,105.9 105.5,105.8 104.3,105.7 103.4,105.8 102.9,105.9 102.7,106.1 102.5,106.3 
					102,106.9 101.8,107.4 101.8,107.7 101.9,108 				"/>
				
					<radialGradient id="Fill-16_1_" cx="-32.7499" cy="501.3683" r="1" gradientTransform="matrix(2.2018 0 0 -2.2018 147.4667 1214.7192)" gradientUnits="userSpaceOnUse">
					<stop  offset="0" style="stop-color:#7E3D90"/>
					<stop  offset="0.4721" style="stop-color:#702283"/>
					<stop  offset="1" style="stop-color:#33193D"/>
				</radialGradient>
				<polygon id="Fill-16" class="st15" points="75.6,111.5 76.1,111.9 76.7,111.8 78.4,111.7 84.6,110.9 85.1,110.8 85.8,110.5 
					85.8,110.4 85.7,110 85.5,109.9 85.1,109.7 84.2,109.7 78.4,109.7 77.9,109.8 77.2,110 76,110.5 75.7,110.6 75.5,110.8 
					75.4,111 75.4,111.1 				"/>
				
					<radialGradient id="Fill-17_1_" cx="-21.2656" cy="553.6215" r="1" gradientTransform="matrix(1.549 0 0 -1.549 119.4133 967.3804)" gradientUnits="userSpaceOnUse">
					<stop  offset="0" style="stop-color:#7E3D90"/>
					<stop  offset="0.4721" style="stop-color:#702283"/>
					<stop  offset="1" style="stop-color:#33193D"/>
				</radialGradient>
				<polygon id="Fill-17" class="st16" points="87.9,110.4 89.2,110.5 90.3,110.6 90.3,110.5 90.3,110.4 90,109.5 89.9,109.4 
					88.2,109 88,109 87.7,109.1 86.6,109.6 86.5,109.7 86.5,109.7 86.7,110.1 				"/>
				
					<radialGradient id="Fill-18_1_" cx="-40.6785" cy="465.2931" r="1" gradientTransform="matrix(3.1053 0 0 -3.1053 217.9139 1553.8248)" gradientUnits="userSpaceOnUse">
					<stop  offset="0" style="stop-color:#7E3D90"/>
					<stop  offset="0.4721" style="stop-color:#702283"/>
					<stop  offset="1" style="stop-color:#33193D"/>
				</radialGradient>
				<polygon id="Fill-18" class="st17" points="92,110.5 92.2,110.5 94,108.7 94.2,108.6 96.1,108.4 97.4,108.3 97.6,108.3 
					99.3,108.4 99.3,108.4 99.4,108.5 99.3,108.6 99.3,108.6 99.9,108.6 99.9,108.6 100,108.5 99.9,108.1 99.8,107.9 99.5,107.8 
					99.2,107.6 99,107.6 98.2,107.5 96,107.4 93.3,107.4 92.9,107.5 92.4,107.7 92.3,107.9 91.7,108.7 91.6,108.9 91.6,109.5 
					91.7,110.2 				"/>
				
					<radialGradient id="Fill-19_1_" cx="-45.0705" cy="445.3088" r="1" gradientTransform="matrix(4.0189 0 0 -4.0189 547.4673 1831.9684)" gradientUnits="userSpaceOnUse">
					<stop  offset="0" style="stop-color:#7E3D90"/>
					<stop  offset="0.4721" style="stop-color:#702283"/>
					<stop  offset="1" style="stop-color:#33193D"/>
				</radialGradient>
				<polygon id="Fill-19" class="st18" points="366.5,47.4 366.6,47.7 366.7,47.7 366.8,47.5 367,46.9 367.9,41.9 368.5,38.8 
					370.4,37.8 367.9,37 366.5,45.4 366.3,46.3 366.3,46.7 366.4,47 				"/>
				
					<radialGradient id="Fill-20_1_" cx="-46.5096" cy="438.7614" r="1" gradientTransform="matrix(4.4476 0 0 -4.4476 576.2333 1998.2662)" gradientUnits="userSpaceOnUse">
					<stop  offset="0" style="stop-color:#7E3D90"/>
					<stop  offset="0.4721" style="stop-color:#702283"/>
					<stop  offset="1" style="stop-color:#33193D"/>
				</radialGradient>
				<polygon id="Fill-20" class="st19" points="369.4,48.3 369.4,48.9 369.4,49 369.5,49.1 370.4,48.6 373.9,46.7 374.3,46.4 
					374.4,46.3 374.2,45.5 374,45.3 372.9,44.8 372.7,44.7 372.2,44.6 371.6,44.7 371.1,45.1 370.4,46 370.3,46.3 				"/>
				
					<radialGradient id="Fill-21_1_" cx="-57.5225" cy="388.6524" r="1" gradientTransform="matrix(24.2184 0 0 -24.2185 1794.3706 9496.2695)" gradientUnits="userSpaceOnUse">
					<stop  offset="0" style="stop-color:#7E3D90"/>
					<stop  offset="0.4721" style="stop-color:#702283"/>
					<stop  offset="1" style="stop-color:#33193D"/>
				</radialGradient>
				<polygon id="Fill-21" class="st20" points="401.6,73.1 401.8,73.3 403.4,75.1 403.5,75.2 404,79.3 407,84 407.1,84.1 
					407.2,84.2 407.4,84.2 410.5,82.7 410.5,82.7 410.8,81.8 410.8,81.7 409.8,80.2 409.5,78.9 409.5,78.8 409.5,78.7 412.4,79 
					413.6,80.1 415.8,82.5 416,82.8 416.2,83.1 416.5,84 416.5,88.2 413.5,87.7 412.9,86.4 412.4,84.8 412.3,84.7 411.9,84.5 
					411.3,84.5 409.8,84.9 409.7,84.9 409.6,85 409.3,85.6 409.1,86.7 409.2,86.9 409.3,87.2 409.6,87.4 410.6,88.7 410.9,89.4 
					411.5,91.2 411.5,91.6 411.2,92.5 410.9,93.2 410.7,93.4 409.8,93.9 408.8,94.5 407.8,95 407.4,95 407.1,95 406.9,95 
					406.3,96.3 406.9,96.8 407.9,97.3 409,97.5 409.8,97.5 412,97.1 414.2,96.5 414.5,96.4 417.8,94.6 424,94 424.2,94 424.4,94 
					425.5,89.1 422.3,86.5 418.8,83.3 414.6,79.4 413.7,78.9 412.5,78.2 412.2,78.1 412,78 411.1,77.9 410.3,77.6 408.8,76.8 
					408.4,76.5 407.5,75.7 406.6,74.8 406,74.1 405.8,73.8 404.3,70.6 403.9,70.1 403.7,70 403.3,69.9 403,69.9 402.5,70 
					401.9,70.4 401.5,70.7 401.4,70.8 401.3,71.1 401.3,72.2 				"/>
				
					<radialGradient id="Fill-22_1_" cx="-58.0368" cy="386.3127" r="1" gradientTransform="matrix(30.5618 0 0 -30.5618 2143.1558 11853.8174)" gradientUnits="userSpaceOnUse">
					<stop  offset="0" style="stop-color:#7E3D90"/>
					<stop  offset="0.4721" style="stop-color:#702283"/>
					<stop  offset="1" style="stop-color:#33193D"/>
				</radialGradient>
				<polygon id="Fill-22" class="st21" points="380.2,39.1 377.7,39.2 375,39.3 374.1,39.6 371.4,40.3 370.7,40.7 371.2,42.9 
					371.5,43.6 373.2,43.5 374.5,43.7 376.5,45.5 375.8,46.8 375.6,46.9 373.8,47.6 372.8,47.8 371.8,48 370.9,50.1 370.9,50.5 
					370.9,50.6 371.2,50.8 375.5,51.7 376.1,51.8 374.9,52.6 370,54.9 369.9,55.1 369.8,55.4 369.4,57.4 369.5,58.3 370.8,62.3 
					370.9,62.5 383.6,66.7 384.6,66 384.8,65.7 384.9,65.5 385,65.4 384.9,64.9 384.6,64.1 383.9,63.3 383.8,63.3 383.3,63.3 
					383.2,63.4 383.1,63.6 383.2,63.8 383.1,63.9 382.6,64.3 382,64.7 381.7,64.7 381.4,64.3 381.3,63.4 384.8,59.7 387.4,57.2 
					388.3,56.5 388.6,56.4 396.7,55.4 397.1,55.5 398.2,57.4 398.2,57.5 398.3,57.8 398.1,58.2 398,58.3 397.4,58.8 397.3,58.8 
					396.6,59.2 396.6,60.5 398.3,60 399,58.6 400,56.5 399.4,55.2 398,52.8 397,52 395.9,51.3 395.8,51.4 395.7,51.5 395.1,51.5 
					394.1,51.6 394,51.6 393.7,51.4 393.4,51.1 392.6,50.2 391.7,48.5 391.5,47.9 391.2,47 391.1,45.8 391.2,45.4 391.4,45.1 
					391.5,44.9 391.6,44.8 392.9,43.4 394.6,41.9 395,41.7 395.2,41.7 395.7,41.3 396.2,40.3 396.3,39.5 396.1,37.8 395.8,37.4 
					395.2,36.8 394,36.1 393.8,36 393.5,36 392,36.1 391.7,36.2 389.8,36.6 389.6,36.7 387.9,37.2 385.5,37.6 385,37.6 384.2,37.4 
					383.9,37.3 383.5,37 383.2,36.9 382.6,36.2 382,35.4 381.5,34.5 381.2,33.2 381.1,32.6 381.1,32.3 381.4,31.4 381.7,31.1 
					381.8,31 382.3,30.8 382.6,30.7 382.9,30.6 383.1,30.5 383.5,30.2 383.7,29.9 383.9,28.7 383.9,28.7 383.6,28.3 383.4,28.1 
					381,28.3 377.3,29.3 376.6,29.3 376.2,29.6 374.7,30.8 373.7,32 373.5,32.3 371.1,38.4 371,38.5 370.9,39.2 371,39.3 
					371.4,39.1 371.6,39 374,36.6 374.6,35.3 374.4,34.8 374.2,34 374.2,33.9 374.2,33.8 375.6,31.9 376.4,31.7 376.5,31.7 
					376.7,32.1 376.8,33 376.8,33.3 376.7,33.8 376.4,34.6 375.8,35.7 375.6,36 375.4,36.4 375.1,38.1 375.2,39 377.4,37.9 
					379.1,36.9 384.7,39.2 384.8,39.2 384.9,39.2 386.4,39 388,38.4 388,42.6 387.9,44.9 387.8,45 387.5,45 386.1,45 384,44.3 
					383.4,44.1 380.1,42.2 380,42 380,41.7 				"/>
				
					<radialGradient id="Fill-23_1_" cx="-49.4199" cy="425.5195" r="1" gradientTransform="matrix(5.671 0 0 -5.671 565.3421 2502.4487)" gradientUnits="userSpaceOnUse">
					<stop  offset="0" style="stop-color:#7E3D90"/>
					<stop  offset="0.4721" style="stop-color:#702283"/>
					<stop  offset="1" style="stop-color:#33193D"/>
				</radialGradient>
				<polygon id="Fill-23" class="st22" points="285.2,90.6 285.4,91.1 285.6,91.3 285.9,91.6 286.2,91.6 289.1,92.2 290.3,90.1 
					290.9,88.3 291,87.4 291,86.9 290.9,86.8 290.7,86.7 289.9,86.5 289.1,86.6 288.8,86.7 288.4,86.9 286.5,87.9 285.3,88.8 
					285.1,89.3 285.1,90.1 				"/>
				
					<radialGradient id="Fill-24_1_" cx="-32.6589" cy="501.7819" r="1" gradientTransform="matrix(2.1945 0 0 -2.1945 433.5938 1150.2195)" gradientUnits="userSpaceOnUse">
					<stop  offset="0" style="stop-color:#7E3D90"/>
					<stop  offset="0.4721" style="stop-color:#702283"/>
					<stop  offset="1" style="stop-color:#33193D"/>
				</radialGradient>
				<polygon id="Fill-24" class="st23" points="362.2,50 362.4,50.2 362.9,50.1 365.5,49.2 366.1,48.7 366.4,48.4 366,48 365.8,48 
					363.5,48.9 363.2,49.2 362.7,49.7 362.7,49.4 362.5,49.4 362.4,49.4 362.2,49.4 362,49.5 361.9,49.6 361.9,49.8 				"/>
				
					<radialGradient id="Fill-25_1_" cx="-59.3753" cy="378.2535" r="0.8317" gradientTransform="matrix(480.9967 0 0 -480.997 28799.8008 182075.1719)" gradientUnits="userSpaceOnUse">
					<stop  offset="0" style="stop-color:#7E3D90"/>
					<stop  offset="0.4721" style="stop-color:#702283"/>
					<stop  offset="1" style="stop-color:#33193D"/>
				</radialGradient>
				<polygon id="Fill-25" class="st24" points="150.4,15.1 150.1,18.1 150.1,18.2 151.8,20.2 153.7,22.3 153.8,22.5 154.5,23.9 
					155.1,27 156.9,31.7 157.2,32 158.1,33 159.6,33.7 160.6,34.3 163,37.7 168.2,45.1 169.2,47.4 169.4,48 169.4,48.3 169.3,49.2 
					168.8,50.1 168.7,50.2 164.2,54 163.3,54.4 162.3,54.9 161.4,55.1 160.3,54.6 159.2,54.5 153.8,55.4 153.4,57.4 153.4,57.8 
					153.5,58 153.5,58.7 153.4,58.9 153.3,59 151.2,60.3 151,60.3 150.6,60.4 149.6,59.7 149.5,58.9 148.8,59.3 148.7,59.4 
					148.5,59.7 148.2,60.4 148.1,61.1 147.9,62.2 147.8,62.8 147.9,63.3 148.3,64.1 148.8,64.4 152.4,66.3 152.7,66.4 153,66.3 
					153.2,66.3 153.2,66.2 153.3,66.1 153.3,66.1 153.2,66.1 153.1,66.1 152.7,66 152.6,66 153.2,65.4 154,64.6 156,64.4 
					156.6,64.4 159.7,64.4 159.9,64.4 160,64.5 160.4,64.9 160.6,65.4 160.7,65.7 160.7,66.2 160.7,66.4 160.6,66.5 160.8,66.6 
					160.8,66.7 160.7,67.3 160.5,70.2 160.4,70.5 159.9,71.6 159,73.4 158.8,73.9 158.8,74.1 158.9,74.5 159.7,76.7 160.1,77.6 
					160.3,77.7 161.2,78.3 161.6,78.5 162.6,77.9 162.9,77.7 163.7,77.5 163.9,77.6 164.5,77.7 164.7,78 167.3,83.4 167.4,83.7 
					167.4,83.9 167.4,84.1 167.2,84.7 167.1,85.1 166.9,85.4 166.7,85.7 166.5,85.8 166.1,86 165.4,86.2 164.9,86.1 164.5,85.7 
					164.2,85.4 162.1,85 161.3,85.1 160.4,85.7 159.2,86.7 159.2,86.9 159.5,86.9 159.8,86.9 161.5,89.5 162.6,92.2 162.8,93 
					163.3,94.4 164.1,95.5 165.6,96.8 166.5,97.5 166.8,97.6 167.2,97.6 167.4,97.5 168.6,96.9 168.8,96.9 169,99 169.7,98.9 
					170.5,98.9 173.1,99 176.1,99.1 177.7,99 179.3,99.3 182.2,100.5 183.6,101.6 183.7,101.6 182.2,100.6 179.3,99.3 177.8,99.1 
					176.1,99.1 173.1,99.1 170.5,98.9 169.7,98.9 169,99.1 168.3,99.3 167.6,99.6 168,100.6 168.6,102.2 169,102.7 167.3,102.3 
					166.8,102.3 165.1,102.6 164.9,102.7 164.9,102.9 164.8,102.9 164.6,103 163.3,103.3 159.1,102.9 157.9,102.8 157.3,102.6 
					156.7,102.4 156,101.8 153.7,100.1 152.5,98.7 152.4,98.4 152.3,98.2 152.3,97.7 151.4,97.8 150.4,98.1 148.9,98.5 148.2,99.1 
					146.4,101.5 145.6,103.6 145.2,104.7 142.1,114 142.1,114.5 142.1,115.5 142.1,117.2 143,119.7 143.8,121.4 143.8,121.4 
					143,122.4 143.7,123.5 145.4,126.5 145.5,126.8 145.6,127.1 145.6,127.7 145.6,127.9 145.4,128.3 145.4,128.2 145.3,127.4 
					145.2,127.2 145.1,127.1 143.6,126.1 143,126 141.8,125.8 141.4,125.9 141.1,125.9 140.9,125.9 137.9,124.5 137,124 
					136.2,122.9 135.6,121.8 135.3,121.2 134.1,120.5 133.2,120.4 132.1,120.8 131.3,121.4 130.6,122.2 130.3,122.5 130,123.3 
					129.9,123.5 129.7,124.9 129.3,128.2 131,128.6 131.5,128.4 132.8,127.9 133.1,128.2 133.2,128.3 133.4,128.7 133.5,128.9 
					133.6,130.1 133.4,133.2 133.3,133.8 133,134.4 132.4,135.9 132,136.5 131.6,137.2 131,137.8 130.9,138 130.5,138.3 
					129.9,138.5 129.6,138.6 129,138.5 128.1,138.3 127.6,138.1 127.5,137.9 127.3,137.6 127.3,137.4 127.3,137.3 126.8,136.5 
					125.8,135.1 125,134 124.4,133.9 123.7,133.9 123.5,133.9 122.8,134.4 122.5,134.5 121.9,133.8 121.4,133.1 121.1,132.6 
					120.9,132 120.8,131.6 120.7,130.8 120.7,129.2 121.5,129.8 122.2,129.8 122.6,129.7 124.3,129.1 125,128.8 125.8,128.4 
					126,128 126.2,127.2 126.3,126.9 126.3,126.7 126.3,126.6 123.6,120.2 123.1,119.3 122.7,118.6 122.5,118.4 120.1,118 
					119.7,116.9 119.5,116.2 119.3,114.3 119.3,113.7 119.7,113.2 119.8,113 119.8,112.7 119.6,112.4 118.8,112 116.5,111.6 
					113.9,111.4 108.9,111.8 106.3,112.6 105.3,112.7 104.3,112.6 103.9,112.5 103.9,112.4 103.5,112.4 103,112.4 102.7,112.5 
					99.3,113.5 96.1,114.5 94.6,114.8 94.3,114.8 93.7,114.5 93.3,114.2 93.1,114 92.7,113.7 92.4,113.6 86.3,113.1 84.9,113.3 
					83.9,113.4 82.8,113.6 80.5,114.4 79.7,115.1 77.4,116.7 76.5,117.7 72.7,121.5 72.5,122.3 72.9,122.8 74.2,123.7 74.8,124 
					75.6,125.5 74.7,126.4 73.2,128 72.4,126.8 69.7,125.6 68.4,136 68.3,138.1 67.5,139.5 67.4,139.7 67.6,140.1 68.2,141.3 
					68.4,141.5 68.7,141.7 70.4,142 76,142.2 78.6,142.4 79.3,142.5 80.3,142.7 82.1,143.2 82.4,143.4 80.1,143.4 79.6,143.5 
					79.6,143.6 79.5,143.8 78.9,145.5 78,149.4 77.7,153.8 77,155.5 76.4,156.7 75.7,158.6 75.7,159.3 75.8,160 76.7,160.7 
					76.5,163.5 76.9,169.2 76.7,170.1 76.3,171.6 75.2,175 71.8,180.1 70.1,182.4 69.2,185.7 68.7,190.4 68.4,193.7 67.7,199.6 
					67.3,200.2 67.1,200.4 67,200.5 65.6,200.1 65.3,199.9 65.3,199.9 65.1,199.7 64.1,199.3 59.8,198.6 54.5,198.3 54.1,198.2 
					52.8,198.5 51.9,198.7 50.2,200.2 50.6,203.4 50.2,206.8 49.6,209.1 49.4,210.1 49.1,211.7 49.1,211.9 51.8,213.9 52.9,214.3 
					61.3,216.7 61.6,216.6 62.4,216.1 62.8,215.2 63.3,214.3 63.8,214 64,214.2 64.1,214.3 67.4,220.7 67.8,222.2 67.7,223.9 
					66.8,225.1 66.3,226.3 65.2,228.8 65.1,229.2 65.2,229.9 65.4,230.6 65.9,231.9 67,233.2 64.9,234.4 58.7,238.3 57.2,239.9 
					57.1,240.6 56.7,241.9 56.4,242.2 55.8,242.8 55.3,242.9 50.7,244.4 49.4,246.4 48.2,249.2 50.2,250.2 53.8,253.4 54,254 
					54.1,255.1 54.1,255.3 53.8,255.8 51.7,258.6 50.6,259.6 49.6,260.3 48.6,261 48.1,261.2 48.1,261.2 46.9,260 46.6,259.6 
					46.2,259.4 45.7,259.5 41,261.1 38.7,262 37.5,262.6 36.7,263 32.8,263 31.1,262.2 30.9,262.2 30.7,263 30.7,263.2 31.6,266.1 
					31.3,266.1 30.2,265.5 28.6,264.1 26.2,262.5 25.7,262.2 25.1,261.9 24.9,261.8 20.9,261.7 19.3,262.7 15.3,263.3 13.5,263.2 
					9.9,264.8 8.7,266.8 9.9,272.5 11.4,277.6 11.5,277.7 11.8,278.1 14.4,279.3 14.5,282.9 14.3,283.8 17,286.9 17.5,287.3 
					19.6,290.7 20.2,291.8 20.5,295.1 20.5,295.6 20.3,297.4 19.9,298.7 19.3,301.3 20.1,304.2 18.2,306.3 12.4,313.7 11.4,316.5 
					11.5,319.1 11.9,320 12.3,320.1 12.5,320.1 12.8,320.1 13.1,320 13.4,319.9 13.6,319.7 13.6,319.6 14.1,319.3 15.4,318.7 
					16.3,318.3 17.1,319 16.8,319.2 14.8,320 14,322.3 7.6,326.6 2.5,328.3 0.1,329.4 0,329.4 0,329.8 0.5,332.3 1.7,334.8 
					2.4,335.7 4.5,335.2 7.7,335.4 8.1,335.5 8.1,335.6 7.9,336.3 7.4,337.3 7.3,338.5 7.4,339.6 9.4,340.3 10.5,340.7 11.1,341 
					11.1,341.3 11,341.5 10.7,341.8 10.6,342 10.3,343.2 10.3,343.6 10.5,344 10.8,344.3 10.9,344.9 10,347 9.2,346.6 9.1,346.4 
					8.8,346.3 7.9,346.6 7.1,346.9 6.9,347.5 5.6,351.7 7.8,355.4 11.4,357.4 11.6,357.5 11.8,357.7 12.9,360.5 13,360.9 
					13.2,361.3 14,362.6 14.4,363.2 15,363.8 14.1,364.1 14,364.2 14.7,365.1 17.5,365.9 16.9,368.8 14.2,371.3 14.1,371.5 
					14.2,372.8 14.6,374.1 14.9,374.5 16.5,376.8 16.5,376.8 16.6,376.8 17.4,376.4 17.8,376.2 17.9,376.1 18.9,376.1 21,376.5 
					21.2,376.6 21.3,376.9 22.2,377.4 22.6,378.1 24,380.4 24.2,380.8 24.2,381.7 24.2,382.3 23.7,384.3 23.5,384.9 23,385.8 
					23.1,387.4 25.1,389.7 25.4,390.5 25.5,390.6 25.2,391.5 25.2,391.5 23,392.1 21.2,391.2 20.4,391.4 20.1,391.5 19.1,393.6 
					18.8,394.3 12.7,398.3 12.6,398.4 12.6,398.5 12.4,399.6 12.7,403 10.7,404.7 9.1,410.6 8.8,413 10,418 11,420.3 11.3,421 
					11.6,421.7 14.3,426.3 15.8,428 20.4,430.7 22.9,433.3 23.1,433.4 24.5,434.3 24.7,434.3 25.9,434.3 27,433.5 28.7,434.6 
					29.1,438 29.1,438.6 27.9,442.7 23.2,450.4 22.2,451.4 22,451.6 21.8,451.7 21.4,451.8 21.2,451.9 20.8,452.2 19.7,453.8 
					19.7,454 19.7,454.1 20.8,455.8 20.8,455.8 19.7,457 19.5,457.4 19.5,457.5 19.8,462.6 20.2,463.1 21.2,463.1 21.8,463 
					22.1,462.9 23.4,462.6 25.3,463.3 28.8,466 29.2,466.3 29.6,466.8 30,467.3 29.5,467.4 28.9,467.8 28.8,468.1 28.9,468.4 
					30.1,473.3 30.2,473.4 31.3,475.5 31.6,475.9 32.3,476.8 32.6,477.1 33.9,477.8 35.5,479.2 36.5,481.8 36.6,481.9 36.5,483.4 
					38.2,484.4 38.6,485.5 37.5,486.9 37.9,488 38.9,489.1 43.4,489.9 44.7,489.6 45.5,488.4 45.6,488.1 45.7,487.8 45.2,486.3 
					44.7,485.6 44.4,485.3 44.5,485.1 45.7,484.4 48.9,484.8 50.1,485.1 52,485.8 53.8,487.2 54.8,488.7 54.7,489.2 54.9,490.3 
					55.5,493.4 55.6,493.8 55.9,494 56.1,494.1 56.7,493.9 58,492.6 58.7,490.5 59.5,491.9 60.5,492.9 60.9,493.1 61.6,493.5 
					61.8,493.6 62.2,493 62.8,492.8 63.1,492.7 66.5,493.1 67.7,493.6 68.5,494.2 69.1,494.3 69.4,494.2 72.9,491.3 73.3,490.6 
					73.3,490.6 73.1,490.5 73.1,490.2 73.1,489.8 74,489.6 75.6,489.3 77.6,488.9 80.2,490.3 80.3,491.4 80.2,492.4 80.2,493.1 
					81.9,496.4 83,497.3 83.7,497.8 87.4,500.1 89.7,501 92.9,501.1 94.5,501.1 94.7,501 97.5,500.4 101.5,501 102.3,501.3 
					103.4,501.4 106,502.2 110.1,504.2 110.7,504.7 111.2,505.4 111.3,505.6 112.6,506.2 115.1,507.2 115.8,507.4 116.6,507.3 
					116.8,507.2 119.7,507.6 119.8,507.6 119.9,507.9 120.1,508.3 118.6,508.8 118.3,509 118.1,509.2 115.3,513.5 114.6,514.9 
					114.3,515.6 114,516.3 113.5,517.7 113.2,518.7 112.9,519.7 112.8,520.3 112.6,520.8 112.2,521.3 111.7,522 111,522.6 
					108.2,524.6 106.2,525.1 105.8,525.1 105.4,525.3 105.3,525.4 105.2,525.7 104.6,528.6 100.7,533.1 100.3,533.4 99.1,534.1 
					98.1,534.5 97.9,534.7 97.8,534.9 95.6,539.1 95.5,539.5 95.5,539.8 95.5,540.1 95.7,541 95.7,541.8 95.7,544.7 95.7,545 
					95.6,545.4 95.3,546 95.1,546.3 93.2,550.2 91.5,554.4 91.3,554.9 91.2,555.5 91.1,556 91.1,556.5 91.2,557.3 91.8,560.4 
					91.8,560.7 91.7,560.9 91.6,561.2 91.5,561.4 91.3,561.6 90.9,561.8 89.5,562.3 89.2,562.6 88.8,563 88.6,563.4 88.6,563.7 
					88,566.7 87.5,568.5 87.2,569.4 87,569.7 85.1,572.4 83.3,574.7 83.2,575 81.9,577.7 81.8,577.9 81.8,578.3 81.3,580.9 
					81.3,581.2 81.2,584.8 81.1,585 81.2,585.3 81.3,585.5 83.1,587.6 83.5,588.3 83.7,588.8 83.9,589.8 83.9,590.3 83.8,590.7 
					83.4,591.5 83,592 81.5,594.1 80.1,598 80,598.4 80,599 80,599.3 80.3,600.1 80.3,600.5 80.3,601 80.1,601.5 79.1,603.9 
					78.4,605.6 78.3,605.9 78.2,606.6 78.3,607 79.1,609.3 79.2,609.7 79.2,610 79.1,610.6 78.9,611.1 78.6,611.4 78.5,611.6 
					77.2,612.6 77.1,612.8 77,613.1 77.3,615.4 77.4,615.7 77.5,616.1 77.7,616.3 81.2,621 85.9,622.2 86.2,623 86.4,623.7 
					86.4,624 84.3,624.8 83.9,624.7 83.7,624.8 84.3,625.7 85.3,626.8 85.4,626.9 86,627.2 86.7,627.2 86.9,627.2 90.1,626.3 
					92.2,625.5 92.7,625.3 93.5,624.4 93.7,624.1 94.8,622.9 97.7,622.8 97.9,622.9 98.2,623 98.3,623.1 99.2,624.4 101.9,625.5 
					105.3,626.2 105.5,626.2 109.2,625.8 109.4,625.7 109.8,625.4 109.9,625 110,624.4 110.1,624.1 110.2,624 110.5,623.7 
					115.5,620.7 115.7,620.7 115.9,620.6 116.3,620.7 118.9,621.2 120.4,621.6 120.9,621.8 121.1,622 121.1,622.1 121,622.8 
					121,623.1 121.1,623.4 121.2,623.6 122.5,624.8 122.8,624.9 122.9,625 123.2,625 128.6,625.5 129,625.4 130.5,625 131.8,624.6 
					132.2,624.3 132.2,624.2 131.9,623.7 130.8,622.4 133.8,620 134.8,620.2 134.8,620.2 135.8,620.7 136.4,621.4 136.5,621.6 
					136.6,621.8 136.5,621.9 136.3,622 136.1,622.6 136.4,623 137.2,623.1 137.6,622.7 138.4,622 139.6,619.4 139.9,618.7 
					139.9,618.5 138.7,616.8 138.4,616.8 138.2,616.8 136.1,616.9 135.6,617 134.5,617.5 134.2,617.7 134.3,618.2 131.1,619.5 
					130.9,619.4 127.7,617.1 127.4,616.5 127.3,616.4 127.7,614.7 130.4,610.2 131.3,609 132.2,608.2 133.4,608 136,607.5 
					136.4,606.5 137,605.6 139.3,606 139.5,608.9 140,609.6 140.2,609.6 141,609.1 141.2,608.9 141.5,608.4 141.3,607.5 
					143.1,608.1 144.5,609.2 145.4,610.8 144.9,611.4 144.7,612.1 145.5,615 145.6,615.2 148.7,616.6 149.1,616.8 149.4,616.7 
					150.2,615.2 153.9,618.5 155,619.1 155.1,619.1 157.5,618.4 158.5,617.9 159.1,617.6 159.5,617.2 159.9,616.9 160.8,616.4 
					161.8,616.1 162.1,616 162.3,616 163.8,616.2 164.1,616.2 166.1,616.7 166.5,616.8 166.9,617 168.7,618 170.8,618.8 
					171.9,618.6 173.2,617.9 172.9,616.6 170.8,612.1 169.4,611 169.2,611 168.7,611 168.6,611 166,609.2 165.5,608.9 164.9,608.4 
					162.9,606.3 162.8,606.1 162.8,606 163,605.6 163.3,605.1 164.5,605.3 164.7,605.5 165,606 165.2,606.1 167,607.1 173.2,611.2 
					173.7,611.7 173.7,611.8 173.8,612.1 173.7,612.2 173.8,612.9 173.9,613.3 174.4,614.1 175,614.7 175.8,615.5 178,616.9 
					179.7,617.8 180.4,618.2 180.6,618.3 180.9,618.3 181.3,618.2 181.8,618 182,617.9 183.1,617.8 183.4,617.7 183.9,617.8 
					184.7,618 188.7,619.2 189.1,619.6 189.7,620.4 190,621 190.1,621.7 190.8,623.2 191.9,624.5 192.2,624.7 192.5,624.8 
					193.1,624.9 194.7,624.9 194.7,624.9 195,625.6 195.7,626.1 198.3,627.1 201.4,628.1 203.4,625.3 203.9,624.5 204.6,624 
					205.9,624 206,624 207.2,624.7 207.4,625.4 207.3,627 207.2,627.2 207.1,627.4 206.9,627.4 206.8,627.5 206.7,627.8 206.8,628 
					210.1,629.6 212.8,629.5 213.4,629.3 215.2,628.3 215.4,628.1 215.2,628.8 215.2,629.3 215.2,630.2 216.9,633.1 217.3,633.5 
					217.4,633.5 217.8,633.5 218.5,633.3 220.2,634 221.7,635.7 222.4,636.7 223.2,638 222.6,638.9 222.5,638.9 222,639.2 
					221.6,640 222.9,644.1 226.6,642.9 226.8,642.7 226.8,642.4 226.8,641.5 227.5,641 230.1,641.3 230.2,641.3 230.6,641.8 
					230.7,642.5 230.6,642.6 230,643.5 229.5,644.1 227.4,649.1 227.2,649.7 227,650.5 227,650.9 227.1,651.2 227.3,651.2 
					231,650.5 233.2,649.7 235.6,648.2 236.8,647 240.8,642 244,637.6 243.8,634.5 243.7,633.8 243.3,633.4 242.8,633.1 
					242.4,633.3 242.3,633.2 242.2,633.1 241.6,631.6 241.5,625.5 241.8,624.9 241.9,624.9 243.7,624.6 243.9,624.6 244,625.3 
					243.8,626.1 243.3,626.7 242.9,627.2 243.3,627.5 244.9,628.5 246.9,628.9 249.4,629.1 249.7,629 250.1,627.8 250.2,627.7 
					250.5,626.9 251.2,626.2 252.2,626.3 256.3,626.9 256.4,627.2 256.3,627.3 256.3,627.6 256.5,628.1 260.5,629.7 262.4,630.1 
					265.6,628.8 267.4,628.6 268.5,630.2 266.9,631.4 266.5,631.8 266.5,632.9 266.6,633.2 267,633.4 267.2,633.4 269.8,634 
					271.7,636 273,637.5 273.1,638.2 272.8,638.4 272.4,638.5 272.3,638.6 272.2,639 272.3,640 272.8,640.2 273.8,640.4 
					274.3,640.5 278.6,640.2 281.4,638.8 282.5,638.2 282.8,638.1 285.6,637 288,637 288.1,637.1 288.3,637.4 287.6,638.1 
					286.7,639.7 286.6,640 286.7,640.2 286.9,640.2 289.3,640 289.4,639.9 290.1,639.5 290.4,639.1 290.7,638.3 290.8,638 
					291.3,637.2 295.7,633.2 297.1,631.7 297.2,631.3 298.4,630.1 298.6,629.9 298.8,629.8 299.1,630.3 299.7,630.5 302.5,630.7 
					306.1,629.9 306.3,629.8 307.1,628.9 307.1,627.8 307,627.5 307,627.4 307,627.2 307.1,626.3 308,624.3 308.1,624.2 
					309.5,623.2 310.5,623.4 318.4,623.4 320.7,623.8 321.5,623.9 321.7,623.8 322.7,622.1 325.3,621.1 328.4,620.7 331.4,621.1 
					333.7,620.4 334.9,621.1 337.6,621.4 340.6,621.5 341.7,621.2 341.8,621.1 341.9,621 342,620.8 342,620.6 341.6,619 
					341.3,618.2 340.4,616.1 340.5,613.3 344,609.9 344.4,609.7 344.8,610.2 344.9,610.6 344.5,611.5 344.3,612 345.2,614.9 
					349.1,613.4 349,613.8 349.1,613.9 350.6,614.5 354.9,614.9 355,615.2 356.4,617.1 358.4,619.1 359.1,619.1 363.1,617.1 
					363.8,615.5 364.2,614.9 364.5,614.8 367.7,614.1 368.4,614 368.7,614 369.4,614 372.5,614.8 373.7,615.2 375.9,619.7 
					375.1,620.6 374.5,622.1 374.4,622.4 374.7,623.3 375.3,624.2 375.9,624.8 382.1,629 384.5,630.4 385.2,630.7 387.3,631.5 
					387.5,631.6 387.6,631.5 389.8,629.1 389.9,628.5 389.7,626.6 389.7,626.4 389.4,626.2 389.2,626.1 388.9,625.9 388.8,625.8 
					388.8,625.6 389.2,622 389.3,621.5 390.8,619.1 391.9,617.9 392.1,617.6 392.3,617 392.2,616.6 390.4,612.4 389.2,610.8 
					389,610.7 387.4,609.9 387,609.9 386.9,610 386.7,610.3 386.7,610.4 386.7,610.6 386.5,610.7 386,611.1 385.7,611.3 
					384.9,611.3 382.2,611.1 381.5,610.6 381.1,610.1 381,609.9 381,609.8 384.1,603.7 386.2,600 386.2,599.7 386.2,599.3 386,599 
					383.7,594.8 381.9,592 381.1,590.9 381,590.7 380.6,590.6 378.6,590.2 378.4,590 378.2,589.6 377.5,586.7 377.4,586.5 
					377.2,586 376.8,585.6 376.2,584.9 374.5,583.6 372.2,581.7 371.7,581 371.4,580.4 371.3,579.8 371,578.3 371.1,578.1 
					371.2,577.9 371.6,577.4 373.7,575.7 375.4,574.3 375.6,574.1 376.3,573.2 377.1,571.5 377.2,571.3 377.2,570.7 377.2,570.6 
					377.4,570.3 377.6,570.2 377.8,570.1 380.1,569.7 381.6,569.7 381.9,569.6 382.2,569.4 382.5,569.2 382.8,569 384.7,566.8 
					384.9,566.5 385.2,565.9 385.3,565.6 385.6,565.4 385.8,565.2 389,563.4 389.5,563.3 390,563.4 391,563.4 391.6,563.3 
					392,563.1 394.3,561.8 398.3,561.8 398.7,561.7 399,561.5 402.2,559.4 402.7,559 406.8,554.8 407,554.6 407.1,554.4 407.3,554 
					408.3,549.9 408.4,549.6 408.4,549.4 408.2,549 407.6,548 407.6,547.8 407.6,547.5 407.8,546.7 408,546.3 409.1,543.1 
					409.1,542.9 408.5,540.8 408.5,540.7 407.9,539.9 409.5,539.4 409.9,539.2 410.7,538.5 411.4,537.8 411.5,537.5 411.8,536.2 
					416.2,537.9 420.3,540.4 420.5,540.6 422.8,541.8 424,542.1 424.2,542 427.9,536.7 429,533 429,531.7 428,527.1 427,525.2 
					427.7,523.9 428.2,522.2 428.7,520.4 427.7,518.2 423,511.2 422.5,511.2 422.1,511.6 421.9,511.7 420.4,511.8 419.7,511.8 
					419.4,511.7 418.4,510.6 417.9,509.4 417.3,508 416.4,506.9 414.4,504.6 414.2,504.5 414,504.3 411.2,504.2 410,504.7 
					410,505.4 410,505.9 410.1,506.2 410.2,506.9 409.6,507 409.5,507 405.9,504.6 405,504 404.2,500.5 403.7,498.7 403.2,498 
					400.6,495.1 399.5,494.2 397.5,492.8 397.1,492.6 396.8,492.6 395.7,492.9 395.1,493.1 394.6,493.3 393.2,492.7 392.5,492.3 
					391.6,491.7 390.9,490.9 390.8,488.5 390.5,488.5 390.3,488.4 389.6,487.8 388.2,486.6 387.5,485.6 382.7,479.3 381.1,477.1 
					379.4,475.6 378.2,474.8 377.9,474.8 375.5,474.4 374.8,474.3 374.3,474.4 374.4,475 374.7,475.3 374.9,475.8 374.8,475.9 
					374.2,475.9 370.1,475.3 369.2,475 368.8,474.8 367.6,472.5 367.7,471.9 367.5,470.9 361.9,466.5 360.5,464.4 361,463.7 
					361.1,463.6 361.1,463.2 361,461.4 360.9,460.3 360.8,460.1 360.5,459.8 360.3,459.8 360.2,459.8 360.1,460.2 359.7,460.1 
					358.7,459.8 357.9,459.3 358.2,459 357.8,458.7 357.1,457.6 354.8,452.7 354.2,448.4 353.9,447.1 353.7,447 350.1,446 
					349.7,445.9 349.5,445.8 349.4,445.6 347.8,443.4 347.5,442.8 347.2,441.7 347.1,441.5 347.2,441.3 350.6,438.9 350.7,438.3 
					351,435.6 351.5,434.2 353.3,430.8 353.8,430.2 354,430 354.1,427.2 351.8,423.2 351.3,422.5 350.1,421.8 349.3,421.7 
					347.9,421.7 344.6,419.7 341.9,417 338.8,416.5 339,414.8 337.8,413.5 336.9,412.9 336.5,412.8 336,412.9 335.9,412.9 
					335.4,412.4 335.4,412.2 335.2,411.2 335,409.9 335,409.5 335.3,408.7 335.8,408.2 336,407.7 336.1,407.4 335.2,405.7 
					334.1,404.3 333.2,403.3 333,403.2 330.3,401.8 329.3,400.8 329.2,400.6 329.9,399.6 330.3,399.3 331,399.1 331.6,398.6 
					331.7,398.5 331.7,398.4 330.8,396.2 329.6,395 329.9,394.8 332.1,394.7 333.7,394.7 334.1,394.7 335,395.8 339.7,402.6 
					339.9,403.9 339.7,404.6 339.6,404.7 339.2,404.9 339.1,405.1 339.3,405.5 340,406.6 340.1,406.7 340.2,406.8 341,406.9 
					341.7,407 342.3,407 342.5,406.9 342.7,405.3 342.4,404.7 342.2,404.6 342,404.5 341.9,404.4 341.8,404 342,401.7 342.2,401.1 
					343.8,398 345.5,395.5 351.5,388 355.1,387 359.2,386.4 360.1,386.3 363.1,384.6 367.4,382 367.5,382 368,382.3 371.4,384.5 
					373.8,386 374.4,386.2 376.1,385.2 376.4,385 378.1,382.9 378.2,382.6 378.3,382.3 378.3,382.3 378.3,381.9 378.2,381.6 
					378.1,381 378.2,379.3 378.6,377.6 378.6,377.4 378.7,377.4 379.2,377.2 383.7,376.8 386.2,377.6 387.4,377.3 389,373.6 
					388.9,373.1 391.6,370.1 396.4,366.4 398.1,366.6 401.3,368.1 402.8,366.1 403.6,365.7 405.1,362.3 405.1,362.2 404.9,361.4 
					404.8,361 410.7,357.5 411.5,357.4 417.1,356.6 417.2,356.6 418.8,357 419,357.1 419.5,357.4 419.8,357.5 419.9,357.5 
					420.9,357.3 421.4,357.2 423.4,355.8 423.7,355.2 423.7,354.8 423.5,352.3 423.3,351.9 424.8,351.8 425.5,351.7 432.3,349.5 
					432.8,349.3 433.7,348.2 435.3,347.4 444.4,342.8 448.7,341.2 449.3,339.2 449.2,338.4 448.9,338.1 448.7,337.9 448.4,337.8 
					447.8,337.9 445,337.2 444.6,337 444.4,336.9 441.5,334.3 441.4,334.1 442.9,329.4 443.1,328.9 443.4,328.5 444,328.4 
					444.1,328.5 444.3,328.6 445.1,329.5 445.2,329.7 445.4,329.8 449.1,331.2 449.3,331.2 449.7,331.1 453.5,330.6 453.6,329.4 
					453.5,328.8 453.9,328.6 458.2,332.2 459.3,333.2 461,338.3 461.7,341.3 461,343.3 461.1,343.9 462.8,344.6 467.2,346.3 
					469,346.6 469.3,346.6 470.5,346.5 470.8,346.3 470.9,345.7 471.3,343.7 471.5,341.8 472.7,339.5 473.8,338.1 475,336.5 
					475.3,336.1 476.3,333.1 476.9,330.5 477,329.6 477,329.6 476.8,329.4 477.4,327.4 478.1,326.4 478.3,325 479.8,313.4 
					480,312.4 481,310.2 481,307.8 480.5,306.2 476.5,297.7 476.5,294.4 476.5,294.1 475.5,292.3 475.1,291.8 475.1,291.7 
					473.7,291 473.5,290.9 466.9,288.4 466.7,288.4 465.9,288.4 465.2,288.4 464.5,288.2 463.6,287.9 463.2,287.4 462.2,285 
					462.2,284.9 463,283.3 462.3,282.7 462.3,282.7 463.1,283.3 463.8,282.2 464.5,280 464.1,276.6 463.5,275.4 463.1,274.9 
					462.5,274.4 462.2,274.3 460.4,272.9 459.1,271.5 458.7,270.6 456.4,265.4 455.6,265.2 455.4,265.1 455.3,264.9 454.6,263.8 
					454.6,263.4 454.5,262.5 454.5,262.4 454.8,262.1 456.2,260.6 457.1,259.9 459.5,256.6 460.3,253.8 460.5,248.9 460.2,248.4 
					460.1,248.4 461.3,246.4 461.6,245.8 461.6,245.7 462,243 462,242.8 461.2,241.5 460.9,241.2 460.4,240.9 460,240.7 
					459.5,240.5 458.9,240.5 458.7,240.4 458.3,239.9 458.1,239.6 457.8,238.9 457.5,236.8 457.5,236.5 457.6,236.3 458.3,235.5 
					458.7,234.7 458.7,234.3 458.9,229.1 458.9,228.9 458.8,228.8 458,227.7 457.8,227.4 457.6,227.3 457.5,227.2 453.7,226.3 
					453.4,226.2 452.8,226.2 452.5,226.1 452.3,225.9 451.5,225.1 451.4,224.9 451.3,224.7 450.1,220.1 449.8,217.9 449.6,217.5 
					448.8,216.2 448.8,215.5 449.1,213.7 449.2,213.3 449.4,212.9 449.6,212.6 449.9,212.4 451.1,211.5 451.8,210.7 453.2,208.3 
					453.3,208 453.4,207.5 453.2,201.2 453.1,200.9 451.2,198.5 450.8,198.1 449.4,197.2 449.2,197 448.8,196.9 448.5,196.9 
					447.8,196.5 446.7,195.9 446,195.6 444.5,194.6 443.7,194.1 442,192.4 441.9,191.9 441.7,191.5 441.6,191.5 440.2,189.8 
					438.9,188.3 437.7,187.1 431.3,183 428.3,181.8 426.8,181.7 426.2,181.4 426.1,181.3 425.8,180.7 425.7,180.6 425.7,180.1 
					426.1,179.2 426.7,178.3 427.3,177.3 427.4,176.2 427.1,175.6 426.2,172.4 426,171.1 426,171 426.2,170.2 427.4,169.1 
					429.1,167.9 429.8,167.7 430.5,167.3 431.9,166.1 432.9,165.2 435.6,162.4 435.8,162.1 436.2,161.3 436.8,159.5 437.2,156.9 
					437.3,156.5 437.5,154.4 436.7,153.3 436.6,153 436.3,152.1 436.3,151.9 436.5,151.1 436.7,149.4 436.9,149.3 437.3,149.1 
					439.3,146.1 440.1,144.3 440,143.9 439.7,143.2 439.2,143.1 438.5,143.1 437.7,140.4 437.8,138.8 437.9,138.8 437.7,138.2 
					435.6,132.2 434.6,128.2 434.3,126.4 433,124.6 432.8,124.5 432.2,122.7 431.6,121.2 431.4,120.4 431.4,120.3 431.7,118 
					431.4,114.9 429.8,109.7 428.9,105 428.6,104.1 427.9,103.5 427.6,103.4 427,103.3 426.7,103.3 426.6,103.4 426.2,103.9 
					425.6,104.7 424.7,105.4 424.5,105.5 424.2,105.6 421.5,105.5 420.7,105.4 419.6,105 414,103 413.7,102.9 412.5,101.7 
					410.8,100.5 406,97.6 405.9,97.4 405.4,96.5 405.3,96.2 406.5,94.4 408,92.7 408.7,92 408.9,91.8 409.3,91.6 409.6,91.6 
					409.7,91.7 409.8,91.6 410.1,91.3 410.4,90.8 410.4,90.7 410.3,90.4 410,89.8 409.4,89 406.2,85.6 403.5,80.1 403.5,76.7 
					403.4,76.4 403.2,75.8 402.8,75.1 402.3,74.5 399.1,71.4 396.2,72.3 389.1,74.6 388.8,74.7 388,75.4 388,75.5 388.6,76.8 
					389,77.3 389.3,77.8 389.4,78 389.4,78.1 389.1,78.2 389,78.2 387.8,78 387.5,77.9 387.2,77.6 386.3,76.1 386.2,75.9 
					386.2,75.1 385.7,74 385.5,73.8 385.5,73.7 384.5,73.1 384.3,73.1 384.1,73.3 383.7,73.5 383.4,73.5 383.3,73.4 383.1,72.8 
					384.5,71.6 384.5,71.5 382.7,70.8 380.9,70.8 380.7,70.4 380.5,70.4 380.4,70.3 380.2,70 380,69.5 378.7,66.8 378.4,66.2 
					378.2,66.1 373.3,63.7 373.1,63.7 372.6,64 371.2,64.8 369.1,62.5 367.7,57.9 367.6,57.3 368.2,55.8 364.9,50.9 363.1,50.8 
					360,51.9 359.8,52.1 358.7,53.1 358.6,53.2 358.1,54.4 358.1,55.2 358.1,55.6 357.9,55.9 357.7,56.1 356.6,57.1 356.3,57.3 
					354.7,57.6 350.9,55.8 346.8,55 341.9,57.4 338.1,60.3 335.5,63.2 335.2,64 335.2,64.7 335.7,65.7 335.8,65.7 336.2,65.7 
					337.2,65.9 337.5,66.1 337.8,66.3 337.7,66.5 337.5,66.6 336.6,66.8 335.7,66.7 334.8,66.4 333,65.1 333,65.1 332.9,63 
					333.2,61.5 335.4,56.3 336.2,55.6 343.5,53 346,51.4 348.6,50.7 349.9,50.7 349.9,50.7 350.1,50.8 350.4,51.3 350.7,51.9 
					350.9,52.1 351,52.1 351.8,52.1 354.2,52.1 357.7,51.8 359.2,51.4 359.5,51.2 361.6,49.8 361.7,49.8 361.6,49.6 361.6,49.5 
					361.5,49.4 360.4,49.3 358.9,49.4 357.9,49.5 354.3,49.7 348.4,49.9 345.5,49.6 342.2,49.1 341.8,49 341.2,48.7 339.7,47.6 
					337.9,50.7 335.7,55.1 332.3,61.5 331.8,62.3 331.4,62.7 330.9,63.3 330.5,63.6 330.1,63.9 329.1,64.5 326.3,66.3 325,67.2 
					324.2,67.9 323.9,68.3 322.3,71.4 321.1,74.1 318.7,73.8 315.3,73.3 309.6,75.6 308.6,75.9 308.1,76 307.4,76.1 306.6,76 
					305.7,75.9 304.9,75.7 304.3,75.6 303.8,75.3 303.6,75.3 300.9,75.4 300.4,75.4 300,75.5 299.8,75.5 293.6,80.6 292.2,82.5 
					291.7,83.6 291.6,84 291.6,84.4 291.8,85.1 291.8,85.2 291.9,85.1 293.3,83.4 293.9,82.7 294.5,81.8 295,81 296,79.9 
					296.3,79.7 296.5,79.7 296.6,79.9 297.2,80.7 297.2,81 297.1,81.9 294.9,85.4 294.8,85.6 294.4,85.9 294.1,86.1 293.4,86.3 
					291.9,87.2 291.6,87.5 291.5,87.6 290.8,89.1 290.3,93.7 290,94.5 288.8,96.6 288.2,96.2 287.1,95.6 286.6,95.2 286.5,95 
					286.6,94.3 285.6,93.8 283.6,93 282.3,93.3 282.2,93.5 281.8,93.8 280.8,94.5 280.7,94.5 280.3,94.5 279.8,94.4 279.3,94.1 
					278.9,93.7 278.6,93 278.6,92.6 278.7,91.1 276,88 275.7,87.7 275.5,87.5 271.4,87.7 270.9,87.8 269.1,88.2 268.8,88.3 
					268,88.6 265.6,90.1 261.8,92.6 261.5,92.6 261.3,92.6 260.8,92.4 260.7,91.7 260.8,90.9 260.8,90.7 260.7,90.3 260.4,90 
					260.1,89.7 259.7,89.5 259.4,89.5 258.7,89.6 258.5,89.7 257,89.7 256.6,89.6 256.2,89.3 256,89.2 255.6,88.7 255.3,88.2 
					254.8,87.3 254.3,86 254.2,85.6 254.2,85.3 254.2,84.9 254.4,84.4 254.5,84.2 254.7,83.9 257.3,81.2 257.7,81.5 257.9,81.5 
					259.8,81.9 260.2,81.7 260.6,81.5 260.9,81.2 263.1,78.5 265.5,76.3 268.1,74.4 268.6,74 270.8,72.3 270.8,72.2 270.9,72.2 
					270.3,67.6 269.8,62.1 269.6,60.2 269.7,59.9 270.1,59.3 270.3,56.4 263.6,56.7 262.7,56.9 260.6,58.5 259.2,59.8 258.2,60.9 
					257.7,61.5 256.1,62.7 255.7,63 255.1,63.2 254.7,63.4 254.3,63.4 252.2,63.5 251.7,63.5 251.2,63.4 251,63.3 250.7,63 
					249,61.2 248.9,61 249,60.9 248.8,60.5 248.4,59.9 248.1,59.6 246.9,58.9 246.3,58.5 236.2,53.5 234.8,53.1 233.8,52.8 
					233.3,52.7 232.8,52.7 232,52.9 228.3,54.7 227.9,55.1 226,59.3 225.8,60.3 224.7,58.8 224.8,58.3 225.2,57.4 226.2,56.6 
					225.6,53.5 225.5,53 226.3,51.7 226.7,51.1 225.5,49.9 225,49.5 223.8,48.7 223.4,48.6 223,48.6 222.7,48.7 219.6,49.3 
					215.4,50.3 214.8,50.5 214.8,50.6 213.3,51.2 213,51.4 212.5,51.5 210.8,51.8 210.6,51.7 210.2,51.4 209.9,51.1 209.7,50.7 
					209.1,49.6 209.2,49.5 209.4,49.4 209.7,49.3 210.2,49.3 210.3,49.5 210.5,49.7 210.9,49.6 212.3,48.9 214.4,47.8 215.7,47 
					216.6,46.3 217.1,45.7 217.2,45.5 218.6,43.2 218.6,42.8 218.6,38.4 218.8,36 218.8,34.2 216.1,25.6 215.2,24 213.8,23 
					212.9,22.5 212.8,22.6 212.7,22.8 212.6,23.2 212.6,23.4 211.3,26.2 211.2,26.3 211.2,26.3 210.7,26.3 210,26.1 209.2,25.6 
					204.4,20.2 201.7,19.1 198.2,17.7 199,16.1 199.4,15.6 197.6,15 197.2,15 193,18.8 192.3,19.1 191.2,19.4 190.1,19.9 
					189.2,19.5 187.1,19.9 187,20.4 186.9,20.5 185.7,21.6 184.9,21.7 181,21.3 180.5,19.8 180.4,19.5 180.3,19.1 180.5,18.8 
					180.8,18.4 180.6,17.9 178.9,17.1 176.5,16.1 175.9,15.9 175.6,15.9 174.5,15.9 173.4,16.2 172.1,16.1 171.3,16 170.8,15.7 
					170.4,15.4 170.4,15.3 169.7,14.8 167.2,13.6 167,13.5 166.5,13.4 164.3,13.2 161,12.9 160.6,12.9 160,13 159.4,13.1 155,13.3 
					154,12.6 153.7,12.5 153.1,12.4 151.6,12.4 				"/>
			</g>
		</g>
	</g>
</g>
<g id="Städte" class="st25">
	<rect x="189.7" y="99.5" class="st26" width="54.1" height="12.4"/>
	<text transform="matrix(1 0 0 1 190.9272 110.474)" class="st27 st28 st29">Hamburg</text>
	<rect x="344" y="178.1" class="st26" width="37.4" height="14"/>
	<text transform="matrix(1 0 0 1 346.5594 189.0668)" class="st27 st28 st29">Berlin</text>
	<rect x="305.4" y="261.6" class="st26" width="45" height="14.6"/>
	<text transform="matrix(1 0 0 1 308.5452 272.5924)" class="st27 st28 st29">Leipzig</text>
	<rect x="369" y="305.6" class="st26" width="50" height="12.4"/>
	<text transform="matrix(1 0 0 1 370.8026 316.6399)" class="st27 st28 st29">Dresden</text>
	<rect x="257.6" y="445.8" class="st26" width="56.2" height="14.8"/>
	<text transform="matrix(1 0 0 1 259.2832 456.7553)" class="st27 st28 st29">Nürnberg</text>
	<rect x="277.1" y="548.1" class="st26" width="53.5" height="12.4"/>
	<text transform="matrix(1 0 0 1 277.7635 559.0886)" class="st27 st28 st29">München</text>
	<rect x="153.4" y="504.1" class="st26" width="52.4" height="15.3"/>
	<text transform="matrix(1 0 0 1 155.4127 515.0886)" class="st27 st28 st29">Stuttgart</text>
	<rect x="113" y="385.1" class="st26" width="57.7" height="14.3"/>
	<text transform="matrix(1 0 0 1 116.9031 396.0858)" class="st27 st28 st29">Frankfurt</text>
	<rect x="58.4" y="307.6" class="st26" width="28.4" height="13.9"/>
	<text transform="matrix(1 0 0 1 60.3056 318.5886)" class="st27 st28 st29">Köln</text>
	<rect x="169.9" y="186.5" class="st26" width="59.7" height="12.4"/>
	<text transform="matrix(1 0 0 1 172.6464 197.4942)" class="st27 st28 st29">Hannover</text>
	<circle class="st27" cx="216.7" cy="120.8" r="4"/>
	<circle class="st27" cx="362.7" cy="199.1" r="4"/>
	<circle class="st27" cx="327.9" cy="282.7" r="4"/>
	<circle class="st27" cx="394" cy="326.7" r="4"/>
	<circle class="st27" cx="285.7" cy="466.8" r="4"/>
	<circle class="st27" cx="303.8" cy="569.2" r="4"/>
	<circle class="st27" cx="179.6" cy="525.5" r="4"/>
	<circle class="st27" cx="141.8" cy="406.4" r="4"/>
	<circle class="st27" cx="72.6" cy="329.3" r="4"/>
	<circle class="st27" cx="199.7" cy="207.8" r="4"/>
</g>
<g id="Städte_Pfade">
	<g>
		<path class="st30" d="M197.2,110.5v-4.7H193v4.7h-0.8v-9.6h0.8v4.4h4.2v-4.4h0.8v9.6H197.2z"/>
		<path class="st30" d="M202.5,110.6c-1.6,0-2.6-0.8-2.6-2.2c0-1.8,1.7-2.5,4.2-2.8v-0.5c0-1.2-0.6-1.7-1.8-1.7
			c-0.6,0-1.3,0.2-1.8,0.5l-0.2-0.5c0.6-0.3,1.3-0.5,2-0.5c1.5,0,2.5,0.8,2.5,2.3v5C204.2,110.4,203.4,110.6,202.5,110.6z
			 M204.1,106c-2.2,0.3-3.5,0.8-3.5,2.3c0,1.1,0.7,1.8,2,1.8c0.5,0,1.1-0.1,1.5-0.3V106z"/>
		<path class="st30" d="M215.4,110.5v-5.3c0-1.1-0.5-1.9-1.8-1.9c-0.7,0-1.3,0.3-1.7,0.9v6.3h-0.8v-5.6c0-1-0.5-1.6-1.8-1.6
			c-0.7,0-1.2,0.1-1.7,0.3v6.9h-0.8v-7.2c0.7-0.3,1.5-0.5,2.4-0.5c1.1,0,1.8,0.3,2.2,1c0.5-0.6,1.2-1,2.1-1c1.8,0,2.5,0.9,2.5,2.4
			v5.3H215.4z"/>
		<path class="st30" d="M220.3,110.6c-0.8,0-1.6-0.2-2-0.5V99.5h0.7v3.7c0.5-0.3,1-0.4,1.6-0.4c1.7,0,2.9,1.5,2.9,3.8
			C223.5,108.9,222.5,110.6,220.3,110.6z M220.5,103.3c-0.5,0-1,0.1-1.4,0.3v6.2c0.3,0.2,0.8,0.2,1.3,0.2c1.8,0,2.5-1.5,2.5-3.5
			C222.8,104.6,221.9,103.3,220.5,103.3z"/>
		<path class="st30" d="M227.9,110.6c-1.6,0-2.5-0.8-2.5-2.4v-5.3h0.8v5.3c0,1.2,0.5,1.8,1.8,1.8c0.6,0,1.2-0.1,1.6-0.3v-6.9h0.8
			v7.1C229.7,110.3,228.8,110.6,227.9,110.6z"/>
		<path class="st30" d="M235,103.5c-0.2-0.1-0.5-0.1-0.8-0.1c-0.4,0-0.8,0.1-1.1,0.2v6.9h-0.8v-7.2c0.6-0.3,1.4-0.5,2.3-0.5
			c0.2,0,0.4,0,0.5,0L235,103.5z"/>
		<path class="st30" d="M238.7,113.6c-0.8,0-1.6-0.2-2.1-0.5l0.3-0.5c0.4,0.2,1.1,0.4,1.7,0.4c1.5,0,2.1-1,2.1-2.2v-0.6
			c-0.4,0.2-0.9,0.4-1.6,0.4c-1.8,0-2.9-1.5-2.9-3.8c0-2.4,1.1-4,3.2-4c0.8,0,1.6,0.2,2,0.5v7.4
			C241.4,112.5,240.4,113.6,238.7,113.6z M240.6,103.5c-0.3-0.2-0.8-0.3-1.3-0.3c-1.7,0-2.5,1.4-2.5,3.5c0,2,0.7,3.2,2.3,3.2
			c0.6,0,1.1-0.2,1.4-0.4V103.5z"/>
	</g>
	<g>
		<path class="st30" d="M350.1,189.2c-0.9,0-1.8-0.2-2.4-0.5v-8.9c0.6-0.3,1.4-0.5,2.3-0.5c1.9,0,3,1,3,2.3c0,1.2-0.8,2-1.9,2.3v0
			c1.2,0.2,2.3,1.2,2.3,2.5C353.4,188.4,351.9,189.2,350.1,189.2z M350,179.8c-0.5,0-1.1,0.1-1.5,0.3v3.7h0.8c2.1,0,2.9-0.7,2.9-2.1
			C352.2,180.5,351.5,179.8,350,179.8z M349.3,184.2h-0.8v4.2c0.4,0.2,1,0.3,1.6,0.3c1.4,0,2.5-0.5,2.5-2.1
			C352.6,184.9,351.5,184.2,349.3,184.2z"/>
		<path class="st30" d="M355.6,185.6c0.1,1.8,0.9,3,2.5,3c0.7,0,1.4-0.2,1.8-0.5l0.2,0.5c-0.4,0.3-1.3,0.5-2.1,0.5
			c-2,0-3.2-1.4-3.2-3.9c0-2.4,1.1-3.9,2.9-3.9c1.7,0,2.7,1.1,2.7,3.5L355.6,185.6z M357.8,181.9c-1.4,0-2.2,1.3-2.2,3.3l4.1-0.6
			C359.7,182.8,359.1,181.9,357.8,181.9z"/>
		<path class="st30" d="M365,182c-0.2-0.1-0.5-0.1-0.8-0.1c-0.4,0-0.8,0.1-1.1,0.2v6.9h-0.8v-7.2c0.6-0.3,1.4-0.5,2.3-0.5
			c0.2,0,0.4,0,0.5,0L365,182z"/>
		<path class="st30" d="M366.7,189.1v-11h0.8v11H366.7z"/>
		<path class="st30" d="M370.2,179.9c-0.3,0-0.5-0.2-0.5-0.5c0-0.3,0.2-0.5,0.5-0.5c0.3,0,0.5,0.2,0.5,0.5
			C370.7,179.7,370.5,179.9,370.2,179.9z M369.8,189.1v-7.6h0.8v7.6H369.8z"/>
		<path class="st30" d="M377.1,189.1v-5.3c0-1.3-0.5-1.9-1.9-1.9c-0.6,0-1.1,0.1-1.6,0.3v6.9h-0.8v-7.2c0.6-0.3,1.5-0.5,2.3-0.5
			c1.9,0,2.7,0.8,2.7,2.4v5.3H377.1z"/>
	</g>
	<g>
		<path class="st30" d="M309.9,272.6V263h0.8v9.1h3.1v0.5H309.9z"/>
		<path class="st30" d="M315.6,269.2c0.1,1.8,0.9,3,2.5,3c0.7,0,1.4-0.2,1.8-0.5l0.2,0.5c-0.4,0.3-1.3,0.5-2.1,0.5
			c-2,0-3.2-1.4-3.2-3.9c0-2.4,1.1-3.9,2.9-3.9c1.7,0,2.7,1.1,2.7,3.5L315.6,269.2z M317.8,265.4c-1.4,0-2.2,1.3-2.2,3.3l4.1-0.6
			C319.7,266.4,319.1,265.4,317.8,265.4z"/>
		<path class="st30" d="M322.8,263.4c-0.3,0-0.5-0.2-0.5-0.5c0-0.3,0.2-0.5,0.5-0.5s0.5,0.2,0.5,0.5
			C323.3,263.2,323.1,263.4,322.8,263.4z M322.4,272.6V265h0.8v7.6H322.4z"/>
		<path class="st30" d="M327.4,272.7c-0.4,0-0.9-0.1-1.2-0.2v3.1h-0.7v-10.2c0.6-0.3,1.3-0.5,2.1-0.5c2.1,0,3.1,1.6,3.1,3.8
			C330.7,271.2,329.4,272.7,327.4,272.7z M327.4,265.4c-0.4,0-0.9,0.1-1.3,0.3v6.4c0.3,0.1,0.6,0.2,1.1,0.2c1.7,0,2.6-1.3,2.6-3.4
			C329.9,266.8,329.2,265.4,327.4,265.4z"/>
		<path class="st30" d="M331.7,272.6l3.5-7.1H332V265h4.3l-3.5,7.1h3.6v0.5H331.7z"/>
		<path class="st30" d="M338.5,263.4c-0.3,0-0.5-0.2-0.5-0.5c0-0.3,0.2-0.5,0.5-0.5c0.3,0,0.5,0.2,0.5,0.5
			C339,263.2,338.8,263.4,338.5,263.4z M338.1,272.6V265h0.8v7.6H338.1z"/>
		<path class="st30" d="M343.4,275.7c-0.8,0-1.6-0.2-2.1-0.5l0.3-0.5c0.4,0.2,1.1,0.4,1.7,0.4c1.5,0,2.1-1,2.1-2.2v-0.6
			c-0.4,0.2-0.9,0.4-1.6,0.4c-1.8,0-2.9-1.5-2.9-3.8c0-2.4,1.1-4,3.2-4c0.8,0,1.6,0.2,2,0.5v7.4
			C346.1,274.6,345.1,275.7,343.4,275.7z M345.3,265.6c-0.3-0.2-0.8-0.3-1.3-0.3c-1.7,0-2.5,1.4-2.5,3.5c0,2,0.7,3.2,2.3,3.2
			c0.6,0,1.1-0.2,1.4-0.4V265.6z"/>
	</g>
	<g>
		<path class="st30" d="M374.4,316.8c-0.8,0-1.6-0.2-2.3-0.5v-8.9c0.7-0.3,1.5-0.5,2.3-0.5c2.4,0,3.9,1.9,3.9,5
			C378.2,314.9,376.8,316.8,374.4,316.8z M374.3,307.4c-0.6,0-1.2,0.1-1.5,0.2v8.3c0.3,0.1,0.9,0.2,1.5,0.2c2,0,3.1-1.7,3.1-4.4
			S376.4,307.4,374.3,307.4z"/>
		<path class="st30" d="M382.8,309.6c-0.2-0.1-0.5-0.1-0.8-0.1c-0.4,0-0.8,0.1-1.1,0.2v6.9h-0.8v-7.2c0.6-0.3,1.4-0.5,2.3-0.5
			c0.2,0,0.4,0,0.5,0L382.8,309.6z"/>
		<path class="st30" d="M384.6,313.2c0.1,1.8,0.9,3,2.5,3c0.7,0,1.4-0.2,1.8-0.5l0.2,0.5c-0.4,0.3-1.3,0.5-2.1,0.5
			c-2,0-3.2-1.4-3.2-3.9c0-2.4,1.1-3.9,2.9-3.9c1.7,0,2.7,1.1,2.7,3.5L384.6,313.2z M386.7,309.5c-1.4,0-2.2,1.3-2.2,3.3l4.1-0.6
			C388.7,310.4,388.1,309.5,386.7,309.5z"/>
		<path class="st30" d="M392.7,316.8c-0.7,0-1.4-0.2-1.9-0.5l0.2-0.5c0.4,0.3,1,0.4,1.6,0.4c1,0,1.7-0.7,1.7-1.5
			c0-2.1-3.3-1.2-3.3-3.8c0-1,0.8-1.9,2.2-1.9c0.6,0,1.2,0.2,1.7,0.5l-0.2,0.5c-0.4-0.3-0.9-0.4-1.4-0.4c-1,0-1.5,0.6-1.5,1.4
			c0,1.9,3.4,1.1,3.4,3.8C395.1,315.8,394.1,316.8,392.7,316.8z"/>
		<path class="st30" d="M399.8,316.8c-2.1,0-3.1-1.6-3.1-3.8c0-2.2,1.1-4,3.3-4c0.4,0,0.8,0.1,1.2,0.2v-3.5h0.7v10.6
			C401.5,316.5,400.7,316.8,399.8,316.8z M401.1,309.7c-0.3-0.1-0.7-0.2-1.1-0.2c-2,0-2.6,1.7-2.6,3.4c0,1.8,0.7,3.3,2.4,3.3
			c0.6,0,1-0.1,1.3-0.3V309.7z"/>
		<path class="st30" d="M404.4,313.2c0.1,1.8,0.9,3,2.5,3c0.7,0,1.4-0.2,1.8-0.5l0.2,0.5c-0.4,0.3-1.3,0.5-2.1,0.5
			c-2,0-3.2-1.4-3.2-3.9c0-2.4,1.1-3.9,2.9-3.9c1.7,0,2.7,1.1,2.7,3.5L404.4,313.2z M406.6,309.5c-1.4,0-2.2,1.3-2.2,3.3l4.1-0.6
			C408.5,310.4,407.9,309.5,406.6,309.5z"/>
		<path class="st30" d="M415.4,316.6v-5.3c0-1.3-0.5-1.9-1.9-1.9c-0.6,0-1.1,0.1-1.6,0.3v6.9h-0.8v-7.2c0.6-0.3,1.5-0.5,2.3-0.5
			c1.9,0,2.7,0.8,2.7,2.4v5.3H415.4z"/>
	</g>
	<g>
		<path class="st30" d="M266.4,456.8l-4.7-8.1c-0.2-0.3-0.4-0.7-0.5-1h0c0,0.3,0,0.6,0,1.2v7.9h-0.7v-9.6h1l4.5,7.8
			c0.2,0.3,0.4,0.7,0.5,1h0c0-0.4,0-0.8,0-1.2v-7.6h0.7v9.6H266.4z"/>
		<path class="st30" d="M272,456.9c-1.6,0-2.5-0.8-2.5-2.4v-5.3h0.8v5.3c0,1.2,0.5,1.8,1.8,1.8c0.6,0,1.2-0.1,1.6-0.3v-6.8h0.8v7.1
			C273.8,456.6,272.9,456.9,272,456.9z M270.9,448.1c-0.3,0-0.5-0.2-0.5-0.5c0-0.3,0.2-0.5,0.5-0.5c0.3,0,0.5,0.2,0.5,0.5
			C271.3,447.9,271.1,448.1,270.9,448.1z M272.9,448.1c-0.3,0-0.5-0.2-0.5-0.5c0-0.3,0.2-0.5,0.5-0.5c0.3,0,0.5,0.2,0.5,0.5
			C273.4,447.9,273.2,448.1,272.9,448.1z"/>
		<path class="st30" d="M279.1,449.7c-0.2-0.1-0.5-0.1-0.8-0.1c-0.4,0-0.8,0.1-1.1,0.2v6.9h-0.8v-7.2c0.6-0.3,1.4-0.5,2.3-0.5
			c0.2,0,0.4,0,0.5,0L279.1,449.7z"/>
		<path class="st30" d="M285,456.8v-5.3c0-1.3-0.5-1.9-1.9-1.9c-0.6,0-1.1,0.1-1.6,0.3v6.9h-0.8v-7.2c0.6-0.3,1.5-0.5,2.3-0.5
			c1.9,0,2.7,0.8,2.7,2.4v5.3H285z"/>
		<path class="st30" d="M289.9,456.9c-0.8,0-1.6-0.2-2-0.5v-10.6h0.7v3.7c0.5-0.3,1-0.4,1.6-0.4c1.7,0,2.9,1.5,2.9,3.8
			C293.1,455.2,292,456.9,289.9,456.9z M290,449.6c-0.5,0-1,0.1-1.4,0.3v6.2c0.3,0.2,0.8,0.2,1.3,0.2c1.8,0,2.5-1.5,2.5-3.5
			C292.3,450.9,291.5,449.6,290,449.6z"/>
		<path class="st30" d="M295.3,453.3c0.1,1.8,0.9,3,2.5,3c0.7,0,1.4-0.2,1.8-0.5l0.2,0.5c-0.4,0.3-1.3,0.5-2.1,0.5
			c-2,0-3.2-1.4-3.2-3.9c0-2.4,1.1-3.9,2.9-3.9c1.7,0,2.7,1.1,2.7,3.5L295.3,453.3z M297.5,449.6c-1.4,0-2.2,1.3-2.2,3.3l4.1-0.6
			C299.4,450.5,298.8,449.6,297.5,449.6z"/>
		<path class="st30" d="M304.7,449.7c-0.2-0.1-0.5-0.1-0.8-0.1c-0.4,0-0.8,0.1-1.1,0.2v6.9H302v-7.2c0.6-0.3,1.4-0.5,2.3-0.5
			c0.2,0,0.4,0,0.5,0L304.7,449.7z"/>
		<path class="st30" d="M308.3,459.9c-0.8,0-1.6-0.2-2.1-0.5l0.3-0.5c0.4,0.2,1.1,0.4,1.7,0.4c1.5,0,2.1-1,2.1-2.2v-0.6
			c-0.4,0.2-0.9,0.4-1.6,0.4c-1.8,0-2.9-1.5-2.9-3.8c0-2.4,1.1-4,3.2-4c0.8,0,1.6,0.2,2,0.5v7.4C311,458.7,310.1,459.9,308.3,459.9z
			 M310.3,449.8c-0.3-0.2-0.8-0.3-1.3-0.3c-1.7,0-2.5,1.4-2.5,3.5c0,2,0.7,3.2,2.3,3.2c0.6,0,1.1-0.2,1.4-0.4V449.8z"/>
	</g>
	<g>
		<path class="st30" d="M287,559.1l-0.9-8.1c0-0.3-0.1-0.8-0.1-1.1h0c-0.1,0.4-0.1,0.6-0.3,1.1l-2.3,8.1h-0.7l-2.3-8.1
			c-0.1-0.4-0.2-0.9-0.3-1.1h0c0,0.3,0,0.5-0.1,1.1l-0.9,8.1h-0.7l1.2-9.6h0.9l2.2,7.7c0.1,0.4,0.2,0.7,0.3,1.2h0
			c0.1-0.4,0.1-0.7,0.3-1.2l2.2-7.7h0.9l1.2,9.6H287z"/>
		<path class="st30" d="M292.2,559.2c-1.6,0-2.5-0.8-2.5-2.4v-5.3h0.8v5.3c0,1.2,0.5,1.8,1.8,1.8c0.6,0,1.2-0.1,1.6-0.3v-6.9h0.8
			v7.1C294,559,293,559.2,292.2,559.2z M291,550.5c-0.3,0-0.5-0.2-0.5-0.5c0-0.3,0.2-0.5,0.5-0.5c0.3,0,0.5,0.2,0.5,0.5
			C291.5,550.3,291.3,550.5,291,550.5z M293.1,550.5c-0.3,0-0.5-0.2-0.5-0.5c0-0.3,0.2-0.5,0.5-0.5c0.3,0,0.5,0.2,0.5,0.5
			C293.6,550.3,293.4,550.5,293.1,550.5z"/>
		<path class="st30" d="M300.9,559.1v-5.3c0-1.3-0.5-1.9-1.9-1.9c-0.6,0-1.1,0.1-1.6,0.3v6.9h-0.8v-7.2c0.6-0.3,1.5-0.5,2.3-0.5
			c1.9,0,2.7,0.8,2.7,2.4v5.3H300.9z"/>
		<path class="st30" d="M306.3,559.2c-1.8,0-2.8-1.7-2.8-3.9s1-3.9,2.8-3.9c0.6,0,1.2,0.2,1.6,0.5l-0.2,0.5
			c-0.3-0.2-0.8-0.4-1.3-0.4c-1.4,0-2.1,1.5-2.1,3.3c0,1.8,0.7,3.4,2.1,3.4c0.5,0,1-0.2,1.3-0.4l0.2,0.5
			C307.5,559,306.9,559.2,306.3,559.2z"/>
		<path class="st30" d="M313.7,559.1v-5.4c0-0.9-0.4-1.7-1.7-1.7c-0.6,0-1.2,0.2-1.8,0.5v6.6h-0.8v-11h0.8v3.9
			c0.5-0.3,1.1-0.5,1.8-0.5c1.9,0,2.5,1.2,2.5,2.2v5.4H313.7z"/>
		<path class="st30" d="M317.1,555.7c0.1,1.8,0.9,3,2.5,3c0.7,0,1.4-0.2,1.8-0.5l0.2,0.5c-0.4,0.3-1.3,0.5-2.1,0.5
			c-2,0-3.2-1.4-3.2-3.9c0-2.4,1.1-3.9,2.9-3.9c1.7,0,2.7,1.1,2.7,3.5L317.1,555.7z M319.2,551.9c-1.4,0-2.2,1.3-2.2,3.3l4.1-0.6
			C321.1,552.9,320.5,551.9,319.2,551.9z"/>
		<path class="st30" d="M328,559.1v-5.3c0-1.3-0.5-1.9-1.9-1.9c-0.6,0-1.1,0.1-1.6,0.3v6.9h-0.8v-7.2c0.6-0.3,1.5-0.5,2.3-0.5
			c1.9,0,2.7,0.8,2.7,2.4v5.3H328z"/>
	</g>
	<g>
		<path class="st30" d="M158.4,515.2c-0.8,0-1.7-0.2-2.2-0.5l0.3-0.5c0.5,0.3,1.2,0.4,1.9,0.4c1.3,0,2.1-0.8,2.1-1.9
			c0-2.7-4.2-1.8-4.2-5c0-1.5,1.1-2.4,2.7-2.4c0.7,0,1.5,0.2,1.9,0.5l-0.3,0.5c-0.4-0.3-1.1-0.4-1.7-0.4c-1.2,0-1.9,0.7-1.9,1.8
			c0,2.6,4.2,1.7,4.2,5C161.3,514.1,160.2,515.2,158.4,515.2z"/>
		<path class="st30" d="M165,515.1c-0.9,0-1.6-0.6-1.6-1.7V508h-0.9v-0.5h0.9v-1.8l0.8-0.3v2.1h1.4v0.5h-1.4v5.4
			c0,0.7,0.4,1.2,1.1,1.2c0.1,0,0.3,0,0.4,0v0.5C165.4,515.1,165.2,515.1,165,515.1z"/>
		<path class="st30" d="M169.7,515.2c-1.6,0-2.5-0.8-2.5-2.4v-5.3h0.8v5.3c0,1.2,0.5,1.8,1.8,1.8c0.6,0,1.2-0.1,1.6-0.3v-6.9h0.8
			v7.1C171.5,515,170.6,515.2,169.7,515.2z"/>
		<path class="st30" d="M176.2,515.1c-0.9,0-1.6-0.6-1.6-1.7V508h-0.9v-0.5h0.9v-1.8l0.8-0.3v2.1h1.4v0.5h-1.4v5.4
			c0,0.7,0.4,1.2,1.1,1.2c0.1,0,0.3,0,0.4,0v0.5C176.6,515.1,176.4,515.1,176.2,515.1z"/>
		<path class="st30" d="M180.4,515.1c-0.9,0-1.6-0.6-1.6-1.7V508h-0.9v-0.5h0.9v-1.8l0.8-0.3v2.1h1.4v0.5h-1.4v5.4
			c0,0.7,0.4,1.2,1.1,1.2c0.1,0,0.3,0,0.4,0v0.5C180.8,515.1,180.6,515.1,180.4,515.1z"/>
		<path class="st30" d="M184.7,518.2c-0.8,0-1.6-0.2-2.1-0.5l0.3-0.5c0.4,0.2,1.1,0.4,1.7,0.4c1.5,0,2.1-1,2.1-2.2v-0.6
			c-0.4,0.2-0.9,0.4-1.6,0.4c-1.8,0-2.9-1.5-2.9-3.8c0-2.4,1.1-4,3.2-4c0.8,0,1.6,0.2,2,0.5v7.4
			C187.4,517.1,186.4,518.2,184.7,518.2z M186.7,508.1c-0.3-0.2-0.8-0.3-1.3-0.3c-1.7,0-2.5,1.4-2.5,3.5c0,2,0.7,3.2,2.3,3.2
			c0.6,0,1.1-0.2,1.4-0.4V508.1z"/>
		<path class="st30" d="M191.8,515.2c-1.6,0-2.6-0.8-2.6-2.2c0-1.8,1.7-2.5,4.2-2.8v-0.5c0-1.2-0.6-1.7-1.8-1.7
			c-0.6,0-1.3,0.2-1.8,0.5l-0.2-0.5c0.6-0.3,1.3-0.5,2-0.5c1.5,0,2.5,0.8,2.5,2.3v5C193.5,515,192.7,515.2,191.8,515.2z
			 M193.4,510.7c-2.2,0.3-3.5,0.8-3.5,2.3c0,1.1,0.7,1.8,2,1.8c0.5,0,1.1-0.1,1.5-0.3V510.7z"/>
		<path class="st30" d="M198.8,508.1c-0.2-0.1-0.5-0.1-0.8-0.1c-0.4,0-0.8,0.1-1.1,0.2v6.9h-0.8v-7.2c0.6-0.3,1.4-0.5,2.3-0.5
			c0.2,0,0.4,0,0.5,0L198.8,508.1z"/>
		<path class="st30" d="M202.6,515.1c-0.9,0-1.6-0.6-1.6-1.7V508h-0.9v-0.5h0.9v-1.8l0.8-0.3v2.1h1.4v0.5h-1.4v5.4
			c0,0.7,0.4,1.2,1.1,1.2c0.1,0,0.3,0,0.4,0v0.5C203,515.1,202.8,515.1,202.6,515.1z"/>
	</g>
	<g>
		<path class="st30" d="M118.9,387v3.8h3.1v0.5h-3.1v4.7h-0.8v-9.6h4.2v0.5H118.9z"/>
		<path class="st30" d="M126.5,389.1c-0.2-0.1-0.5-0.1-0.8-0.1c-0.4,0-0.8,0.1-1.1,0.2v6.9h-0.8v-7.2c0.6-0.3,1.4-0.5,2.3-0.5
			c0.2,0,0.4,0,0.5,0L126.5,389.1z"/>
		<path class="st30" d="M130.3,396.2c-1.6,0-2.6-0.8-2.6-2.2c0-1.8,1.7-2.5,4.2-2.8v-0.5c0-1.2-0.6-1.7-1.8-1.7
			c-0.6,0-1.3,0.2-1.8,0.5l-0.2-0.5c0.6-0.3,1.3-0.5,2-0.5c1.5,0,2.5,0.8,2.5,2.3v5C132,396,131.2,396.2,130.3,396.2z M131.9,391.7
			c-2.2,0.3-3.5,0.8-3.5,2.3c0,1.1,0.7,1.8,2,1.8c0.5,0,1.1-0.1,1.5-0.3V391.7z"/>
		<path class="st30" d="M139,396.1v-5.3c0-1.3-0.5-1.9-1.9-1.9c-0.6,0-1.1,0.1-1.6,0.3v6.9h-0.8v-7.2c0.6-0.3,1.5-0.5,2.3-0.5
			c1.9,0,2.7,0.8,2.7,2.4v5.3H139z"/>
		<path class="st30" d="M146.1,396.1l-3.3-3.9h0v3.9H142v-11h0.7v7h0l3.1-3.6h0.9l-3.3,3.6l3.6,4H146.1z"/>
		<path class="st30" d="M149.4,389v7.1h-0.8V389h-0.9v-0.5h0.9v-1.2c0-1.3,0.7-2.2,2.1-2.2h0.1v0.5c-1,0-1.4,0.7-1.4,1.7v1.2h1.4
			v0.5H149.4z"/>
		<path class="st30" d="M154.8,396.2c-1.6,0-2.5-0.8-2.5-2.4v-5.3h0.8v5.3c0,1.2,0.5,1.8,1.8,1.8c0.6,0,1.2-0.1,1.6-0.3v-6.9h0.8
			v7.1C156.6,396,155.7,396.2,154.8,396.2z"/>
		<path class="st30" d="M161.9,389.1c-0.2-0.1-0.5-0.1-0.8-0.1c-0.4,0-0.8,0.1-1.1,0.2v6.9h-0.8v-7.2c0.6-0.3,1.4-0.5,2.3-0.5
			c0.2,0,0.4,0,0.5,0L161.9,389.1z"/>
		<path class="st30" d="M165.7,396.1c-0.9,0-1.6-0.6-1.6-1.7V389h-0.9v-0.5h0.9v-1.8l0.8-0.3v2.1h1.4v0.5h-1.4v5.4
			c0,0.7,0.4,1.2,1.1,1.2c0.1,0,0.3,0,0.4,0v0.5C166.1,396.1,165.9,396.1,165.7,396.1z"/>
	</g>
	<g>
		<path class="st30" d="M66.3,318.6l-3.8-5.1h0v5.1h-0.8V309h0.8v4.5h0l3.7-4.5h1l-3.9,4.5l4.1,5.1H66.3z"/>
		<path class="st30" d="M70.9,318.7c-1.9,0-2.8-1.7-2.8-3.9c0-2.2,0.8-3.9,2.8-3.9s2.8,1.7,2.8,3.9
			C73.6,317.1,72.8,318.7,70.9,318.7z M70.9,311.4c-1.5,0-2,1.6-2,3.4s0.5,3.4,2,3.4s2-1.6,2-3.4C72.9,313,72.4,311.4,70.9,311.4z
			 M69.8,310c-0.3,0-0.5-0.2-0.5-0.5s0.2-0.5,0.5-0.5s0.5,0.2,0.5,0.5S70.1,310,69.8,310z M71.9,310c-0.3,0-0.5-0.2-0.5-0.5
			s0.2-0.5,0.5-0.5s0.5,0.2,0.5,0.5S72.2,310,71.9,310z"/>
		<path class="st30" d="M75.6,318.6v-11h0.8v11H75.6z"/>
		<path class="st30" d="M82.8,318.6v-5.3c0-1.3-0.5-1.9-1.9-1.9c-0.6,0-1.1,0.1-1.6,0.3v6.9h-0.8v-7.2c0.6-0.3,1.5-0.5,2.3-0.5
			c1.9,0,2.7,0.8,2.7,2.4v5.3H82.8z"/>
	</g>
	<g>
		<path class="st30" d="M179.1,197.5v-4.7h-4.2v4.7h-0.8v-9.6h0.8v4.4h4.2v-4.4h0.8v9.6H179.1z"/>
		<path class="st30" d="M184.4,197.6c-1.6,0-2.6-0.8-2.6-2.2c0-1.8,1.7-2.5,4.2-2.8v-0.5c0-1.2-0.6-1.7-1.8-1.7
			c-0.6,0-1.3,0.2-1.8,0.5l-0.2-0.5c0.6-0.3,1.3-0.5,2-0.5c1.5,0,2.5,0.8,2.5,2.3v5C186.1,197.4,185.3,197.6,184.4,197.6z
			 M186,193.1c-2.2,0.3-3.5,0.8-3.5,2.3c0,1.1,0.7,1.8,2,1.8c0.5,0,1.1-0.1,1.5-0.3V193.1z"/>
		<path class="st30" d="M193.1,197.5v-5.3c0-1.3-0.5-1.9-1.9-1.9c-0.6,0-1.1,0.1-1.6,0.3v6.9h-0.8v-7.2c0.6-0.3,1.5-0.5,2.3-0.5
			c1.9,0,2.7,0.8,2.7,2.4v5.3H193.1z"/>
		<path class="st30" d="M200.2,197.5v-5.3c0-1.3-0.5-1.9-1.9-1.9c-0.6,0-1.1,0.1-1.6,0.3v6.9H196v-7.2c0.6-0.3,1.5-0.5,2.3-0.5
			c1.9,0,2.7,0.8,2.7,2.4v5.3H200.2z"/>
		<path class="st30" d="M205.6,197.6c-1.9,0-2.8-1.7-2.8-3.9c0-2.2,0.8-3.9,2.8-3.9s2.8,1.7,2.8,3.9
			C208.4,196,207.5,197.6,205.6,197.6z M205.6,190.3c-1.5,0-2,1.6-2,3.4s0.5,3.4,2,3.4s2-1.6,2-3.4
			C207.6,191.9,207.1,190.3,205.6,190.3z"/>
		<path class="st30" d="M212.6,197.5H212l-2.5-7.6h0.8l1.8,5.9c0.1,0.3,0.2,0.6,0.2,0.9h0c0-0.2,0.1-0.6,0.2-0.9l1.9-5.9h0.7
			L212.6,197.5z"/>
		<path class="st30" d="M217,194.1c0.1,1.8,0.9,3,2.5,3c0.7,0,1.4-0.2,1.8-0.5l0.2,0.5c-0.4,0.3-1.3,0.5-2.1,0.5
			c-2,0-3.2-1.4-3.2-3.9c0-2.4,1.1-3.9,2.9-3.9c1.7,0,2.7,1.1,2.7,3.5L217,194.1z M219.1,190.3c-1.4,0-2.2,1.3-2.2,3.3l4.1-0.6
			C221,191.3,220.4,190.3,219.1,190.3z"/>
		<path class="st30" d="M226.3,190.5c-0.2-0.1-0.5-0.1-0.8-0.1c-0.4,0-0.8,0.1-1.1,0.2v6.9h-0.8v-7.2c0.6-0.3,1.4-0.5,2.3-0.5
			c0.2,0,0.4,0,0.5,0L226.3,190.5z"/>
	</g>
	<circle class="st30" cx="216.7" cy="120.8" r="4"/>
	<circle class="st30" cx="362.7" cy="199.1" r="4"/>
	<circle class="st30" cx="327.9" cy="282.7" r="4"/>
	<circle class="st30" cx="394" cy="326.7" r="4"/>
	<circle class="st30" cx="285.7" cy="466.8" r="4"/>
	<circle class="st30" cx="303.8" cy="569.2" r="4"/>
	<circle class="st30" cx="179.6" cy="525.5" r="4"/>
	<circle class="st30" cx="141.8" cy="406.4" r="4"/>
	<circle class="st30" cx="72.6" cy="329.3" r="4"/>
	<circle class="st30" cx="199.7" cy="207.8" r="4"/>
</g>
</svg>
